<?xml version="1.0" encoding="utf-8"?>
<!-- Generator: Adobe Illustrator 24.3.0, SVG Export Plug-In . SVG Version: 6.00 Build 0)  -->
<svg version="1.1" id="Layer_1" xmlns="http://www.w3.org/2000/svg" xmlns:xlink="http://www.w3.org/1999/xlink" x="0px" y="0px"
	 viewBox="0 0 512 512" style="enable-background:new 0 0 512 512;" xml:space="preserve">
<g id="XMLID_1_">
	<path id="XMLID_5_" d="M350.12,106.89h151.92v142.94H350.12V106.89z M445.79,126.81c-0.7-0.14-1.26-0.14-2.1-0.42l-0.84-0.14
		c-1.12-0.14-2.24-0.28-3.51-0.42c-0.84-0.14-1.54-0.14-2.38-0.14c-1.4-0.14-2.81-0.14-4.21-0.14c-0.56,0-0.98,0-1.68,0
		c-1.26,0-2.24,0.14-3.37,0.14c-0.7,0-1.26,0.14-1.96,0.14c-0.84,0.14-1.68,0.14-2.67,0.28h-0.84l-0.84,0.14l-0.98,0.14
		c-0.42,0-0.84,0.14-1.26,0.28c-0.56,0.14-1.26,0.14-1.82,0.28c-3.51,0.7-7.01,1.68-9.96,2.95c-1.68,0.56-3.23,1.26-4.63,1.96
		c-1.26,0.56-2.38,1.12-3.51,1.82c-1.12,0.56-2.1,1.26-3.09,1.82c-0.56,0.42-1.12,0.84-1.68,1.26c-0.42,0.28-0.84,0.7-1.4,0.98
		c-0.98,0.7-1.96,1.54-2.81,2.24s-1.54,1.4-2.38,2.24c-0.56,0.56-1.26,1.26-1.82,1.96c-0.7,0.7-1.26,1.4-1.82,2.1
		c-0.7,0.7-1.26,1.54-1.82,2.38c-0.56,0.56-0.84,1.26-1.26,1.82c-0.28,0.42-0.56,0.84-0.84,1.26c-1.68,2.67-2.95,5.33-4.21,8.28
		c-1.4,3.65-2.38,7.72-2.95,11.92c-0.14,1.4-0.28,2.67-0.42,4.07c-0.14,1.12-0.14,2.1-0.14,3.23c0,0.84,0,1.68,0,2.38
		c0.14,0.84,0.14,1.54,0.28,2.52v0.56c0.14,0.98,0.28,1.96,0.42,2.81c0.14,0.42,0.14,0.7,0.28,1.12c0.14,0.7,0.42,1.54,0.56,2.24
		c0.28,0.98,0.56,1.96,0.98,2.95c0.28,1.12,0.84,2.24,1.26,3.37c0.7,1.68,1.54,3.37,2.38,5.05c0.56,0.98,1.12,1.82,1.54,2.67
		c0.42,0.7,0.98,1.4,1.26,1.96c0.56,0.84,1.26,1.68,1.82,2.38c0.56,0.84,1.26,1.54,1.96,2.38c0.84,0.98,1.54,1.82,2.38,2.52
		l0.42,0.42c0.7,0.56,1.4,1.26,2.1,2.1c0.56,0.42,1.12,0.98,1.82,1.4c0.56,0.42,1.12,0.98,1.82,1.4c0.84,0.56,1.54,0.98,2.38,1.68
		c0.98,0.56,1.96,1.12,2.81,1.68c2.1,1.12,4.21,2.24,6.73,3.23c0.84,0.42,1.82,0.7,2.81,0.98c0.98,0.42,1.96,0.7,2.95,0.98
		c1.82,0.42,3.65,0.98,5.61,1.26c1.54,0.28,3.23,0.56,4.91,0.7c1.68,0.28,3.37,0.42,5.19,0.42c0.84,0,1.82,0,2.67,0.14h1.26
		c3.09,0,6.17-0.14,8.84-0.28h0.56c1.12,0,2.1-0.14,3.09-0.28c1.68-0.28,3.09-0.42,4.49-0.7c0.84-0.14,1.82-0.28,2.67-0.56
		c1.4-0.28,2.52-0.56,3.79-0.84c0.84-0.28,1.68-0.42,2.52-0.7c0.98-0.28,1.82-0.56,2.81-0.84l0.84-0.28
		c0.42-0.14,0.98-0.42,1.68-0.7c0.98-0.28,1.96-0.7,3.23-1.26c0.84-0.28,1.68-0.7,2.52-0.98c0.7-0.42,1.54-0.7,2.24-1.12
		c0.28-0.14,0.7-0.42,0.98-0.42v-19.5c-0.28,0.14-0.42,0.28-0.7,0.42l-1.26,0.7c-1.26,0.84-2.67,1.54-3.93,2.24
		c-1.4,0.7-2.81,1.54-4.21,2.24c-2.38,0.98-4.77,1.96-7.01,2.81c-4.35,1.54-8.14,2.38-11.64,3.09c-0.42,0-0.84,0.14-1.26,0.28
		c-0.98,0.14-1.82,0.28-2.81,0.28c-1.4,0.14-2.52,0.28-3.65,0.28c-0.84,0-1.4,0.14-2.1,0.14c-1.4,0-2.81,0-4.35-0.14
		c-1.68-0.14-3.37-0.28-5.19-0.56c-2.81-0.56-5.61-1.26-8.42-2.24c-0.42-0.14-0.84-0.28-1.26-0.56c-0.28-0.14-0.56-0.14-0.84-0.28
		c-0.42-0.14-0.84-0.28-1.26-0.56c-0.98-0.42-1.96-0.98-2.81-1.54c-0.42-0.28-0.84-0.56-1.4-0.84c-0.42-0.28-0.98-0.56-1.4-0.98
		c-0.56-0.28-1.12-0.84-1.68-1.26c-0.56-0.42-1.12-0.84-1.54-1.26l-0.56-0.56l-0.28-0.28l-0.14-0.14l-0.28-0.28
		c-0.84-0.84-1.68-1.68-2.52-2.67c-0.42-0.42-0.7-0.98-1.12-1.54c-0.28-0.56-0.7-0.98-0.98-1.4c-0.42-0.42-0.7-0.84-0.84-1.4
		c-0.42-0.7-0.84-1.26-1.12-1.96c-0.28-0.56-0.42-1.12-0.7-1.68c-0.42-0.98-0.7-1.96-0.98-2.95c-0.28-0.7-0.42-1.54-0.7-2.24
		c-0.42-1.96-0.7-3.79-0.98-5.47c-0.14-0.7-0.14-1.26-0.14-1.68c0-0.84,0-1.4,0-1.96v-0.7c0-1.12,0.14-2.52,0.28-4.21
		c0.14-0.98,0.42-1.96,0.7-3.09c0.14-0.7,0.42-1.4,0.56-2.24c0.28-0.7,0.42-1.4,0.84-2.1c0.14-0.42,0.28-0.98,0.56-1.4
		c0.28-0.7,0.56-1.26,0.98-1.96c0.28-0.56,0.56-0.98,0.84-1.54c0.7-1.12,1.4-2.24,2.24-3.23c0.28-0.42,0.56-0.84,0.84-1.26
		c0.42-0.42,0.84-0.98,1.26-1.4c0.28-0.28,0.42-0.42,0.7-0.84c3.65-3.65,7.57-6.17,11.78-8.14c0.7-0.28,1.26-0.56,1.96-0.84
		c0.7-0.28,1.26-0.56,1.96-0.7c0.7-0.28,1.4-0.42,2.1-0.56c0.7-0.28,1.4-0.42,2.1-0.56c0.7-0.14,1.4-0.28,2.1-0.42
		c0.7-0.14,1.4-0.28,2.24-0.28c0.7-0.14,1.54-0.14,2.24-0.28c1.4-0.14,2.81-0.28,4.07-0.28c0.56,0,0.98,0,1.4,0
		c1.12,0,1.96,0,2.95,0.14c0.7,0,1.26,0,1.96,0.14c1.26,0.14,2.38,0.28,3.51,0.56c0.98,0.14,1.96,0.28,2.95,0.42
		c1.4,0.28,2.67,0.56,3.79,0.98c0.7,0.14,1.4,0.28,1.96,0.56c0.84,0.28,1.68,0.56,2.38,0.7c0.98,0.42,1.68,0.56,1.68,0.56
		c0.98,0.28,1.82,0.7,2.81,1.12c1.26,0.42,2.38,0.98,3.51,1.54c0.98,0.42,1.82,0.84,2.67,1.26c0.7,0.42,1.4,0.7,1.96,0.98
		c1.12,0.56,1.96,1.12,2.67,1.4l1.96,1.12v-19.08c0,0-1.12-0.56-3.23-1.26c-0.98-0.28-1.96-0.7-3.23-1.12
		c-0.7-0.28-1.4-0.56-2.24-0.84c-0.56-0.14-1.26-0.42-1.82-0.56c-0.7-0.28-1.4-0.56-2.24-0.84c-0.56-0.14-1.12-0.28-1.82-0.56
		l-0.56-0.14c-0.56-0.14-1.12-0.28-1.68-0.56c-0.7-0.14-1.4-0.28-2.1-0.56c-0.42,0-0.98-0.14-1.4-0.28
		c-0.7-0.14-1.54-0.42-2.24-0.56C447.47,127.09,446.63,126.95,445.79,126.81"/>
	<path id="XMLID_6_" d="M233.42,186v28.05h18.24c0,0,0.42,0,0.84,0c0.7,0,1.54-0.14,2.67-0.14c1.96-0.14,4.63-0.56,7.15-1.4
		c2.24-0.7,4.49-1.96,6.17-3.65c0.7-0.7,1.26-1.4,1.68-1.96c1.4-2.24,1.68-4.63,1.82-5.89c0-0.56,0-0.84,0-0.84s0-0.28,0-0.7
		c0-0.56,0-1.68-0.42-2.67c-0.28-1.4-0.98-2.95-2.1-4.35c-0.28-0.28-0.56-0.56-0.7-0.84c-0.42-0.56-0.98-0.98-1.54-1.4
		c-0.98-0.7-2.1-1.26-3.37-1.82c-1.68-0.7-3.51-1.26-5.47-1.68c-0.98-0.14-2.1-0.42-3.23-0.42c-0.7-0.14-1.4-0.14-2.1-0.14
		s-1.26,0-1.96,0h-17.67V186z"/>
	<path id="XMLID_7_" d="M233.42,143.22v26.65h8.84h1.4c0.7,0,1.26,0,1.96-0.14c1.82-0.14,4.35-0.42,6.87-1.12
		c0.56-0.14,0.98-0.28,1.54-0.42c1.96-0.7,3.79-1.68,5.33-3.23c1.12-1.12,1.96-2.38,2.38-3.65c0.7-1.54,0.84-2.95,0.98-4.07
		c0.14-0.98,0.14-1.4,0.14-1.4s0-0.42,0-1.12c0-1.12-0.28-3.09-1.26-4.77c-0.42-0.84-1.12-1.68-1.96-2.52
		c-0.98-0.98-2.24-1.68-3.51-2.24c-2.52-1.12-5.33-1.54-7.72-1.68c-1.12-0.14-1.96-0.14-2.81-0.14h-12.2V143.22z"/>
	<path id="XMLID_10_" d="M175.06,106.89h151.92v142.94H175.06V106.89z M214.9,126.95v102.96h38.86c0,0,18.94,0.42,29.32-9.96
		c8.56-8.56,7.86-18.38,7.86-18.38s0.56-10.24-7.29-18.1c-6.73-6.59-15.29-8.42-15.29-8.42s3.93-1.82,6.87-4.77
		c1.4-1.4,6.31-5.89,6.31-16.69c0-10.94-7.29-17.25-7.29-17.25s-8-9.4-25.95-9.4H214.9z"/>
	<path id="XMLID_11_" d="M58.35,186v28.05h18.24c0,0,0.28,0,0.98,0c0.56,0,1.54-0.14,2.52-0.14c1.96-0.14,4.49-0.56,7.15-1.4
		c2.24-0.7,4.49-1.96,6.31-3.65c0.7-0.7,1.12-1.4,1.68-1.96c1.4-2.24,1.68-4.63,1.82-5.89c0-0.56,0-0.84,0-0.84v-0.7
		c0-0.56-0.14-1.68-0.42-2.67c-0.42-1.4-0.98-2.95-2.1-4.35c-0.14-0.28-0.42-0.56-0.7-0.84c-0.56-0.56-1.12-0.98-1.68-1.4
		c-0.98-0.7-2.24-1.26-3.37-1.82c-1.68-0.7-3.51-1.26-5.47-1.68c-0.98-0.14-2.1-0.42-3.23-0.42c-0.7-0.14-1.4-0.14-2.1-0.14
		c-0.56,0-1.26,0-1.96,0H58.35V186z"/>
	<path id="XMLID_12_" d="M58.35,143.22v26.65h8.84h1.4c0.56,0,1.4,0,1.96-0.14c1.82-0.14,4.35-0.42,6.87-1.12
		c0.56-0.14,0.98-0.28,1.4-0.42c1.96-0.7,3.79-1.68,5.33-3.23c1.12-1.12,1.96-2.38,2.52-3.65c0.56-1.54,0.84-2.95,0.98-4.07
		c0.14-0.98,0.14-1.4,0.14-1.4v-1.12c-0.14-1.12-0.28-3.09-1.26-4.77c-0.42-0.84-1.12-1.68-1.82-2.52
		c-0.98-0.98-2.24-1.68-3.65-2.24c-2.38-1.12-5.33-1.54-7.72-1.68c-0.98-0.14-1.96-0.14-2.67-0.14H58.35V143.22z"/>
	<path id="XMLID_15_" d="M0,106.89h151.92v142.94H0V106.89z M39.84,126.95v102.96h38.72c0,0,18.94,0.42,29.32-9.96
		c8.42-8.56,7.86-18.38,7.86-18.38s0.56-10.24-7.29-18.1c-6.73-6.59-15.29-8.42-15.29-8.42s3.93-1.82,6.87-4.77
		c1.4-1.4,6.31-5.89,6.31-16.69c0-10.94-7.29-17.25-7.29-17.25s-8-9.4-25.95-9.4H39.84z"/>
	<path id="XMLID_18_" d="M16.97,299.91h10.94c16.41,0,23,6.73,23.15,17.81c0.14,9.96-5.05,19.22-23.15,19.22H16.97V299.91z
		 M0,285.32v118.25h16.97v-51.2h7.15c8.7,0,15.71,2.67,31.42,27.07l15.57,24.27h20.2c-8.14-11.22-11.08-15.29-16.13-23.43
		c-8.98-14.73-15.57-25.67-26.23-32.82c12.62-5.05,19.78-15.29,19.78-28.9c0-20.48-14.87-33.1-38.86-33.1H0V285.32z"/>
	<path id="XMLID_21_" d="M146.87,310.71l19.08,42.78h-36.75L146.87,310.71z M153.18,284.62h-12.06L90.34,403.43h17.25l15.01-34.79
		h50.22l15.85,34.79h17.25L153.18,284.62z"/>
	<path id="XMLID_24_" d="M237.06,300.61h26.09c33.1,0,48.25,20.2,48.25,43.91c0,14.59-8.84,43.77-47.27,43.77h-27.07V300.61z
		 M220.09,403.57h46.15c39,0,62.7-28.76,62.7-59.06c0-27.91-19.22-59.2-62.84-59.2h-45.87v118.25H220.09z"/>
	<rect id="XMLID_25_" x="347.18" y="285.32" width="19.5" height="118.25"/>
	<path id="XMLID_28_" d="M402.45,344.51c0-26.09,19.64-45.03,46.01-45.03c26.51,0,46.15,19.08,46.15,45.03
		c0,25.81-19.64,45.03-46.15,45.03C422.08,389.54,402.45,370.18,402.45,344.51 M384.91,344.51c0,31.98,24.41,60.6,63.12,60.6
		c39.98,0,63.96-28.76,63.96-60.6c0-32.96-24.55-60.74-63.54-60.74C410.16,283.77,384.91,311.69,384.91,344.51"/>
</g>
</svg>
