<svg xmlns="http://www.w3.org/2000/svg" viewBox="0 0 180 44" fill="none">
  <!-- BBC boxes matching the real BBC style: filled squares with letter cutouts -->
  <path fill-rule="evenodd" fill="#000"
    d="M0 0h40v44H0V0zm6 8h15c4 0 7 1 9 3s3 4.5 3 7.5c0 2-0.5 3.8-1.5 5.2-1 1.4-2.4 2.4-4.2 3 2.4 0.8 4.2 2 5.4 3.7 1.2 1.7 1.8 3.7 1.8 6 0 2.4-0.6 4.5-1.9 6.2-1.2 1.7-3 3-5.2 4-2.2 0.9-4.8 1.4-7.8 1.4H6V8zm4.8 4.2V21h8.6c2.2 0 3.9-0.5 5.1-1.4 1.2-1 1.8-2.3 1.8-4 0-1.9-0.6-3.4-1.7-4.4-1.2-1-2.8-1.5-5-1.5h-8.8zm0 12.8V37h9.4c2.4 0 4.3-0.5 5.6-1.4 1.3-0.9 1.9-2.2 1.9-4 0-3.7-2.5-5.5-7.5-5.5H10.8z"/>
  <path fill-rule="evenodd" fill="#000"
    d="M44 0h40v44H44V0zm6 8h15c4 0 7 1 9 3s3 4.5 3 7.5c0 2-0.5 3.8-1.5 5.2-1 1.4-2.4 2.4-4.2 3 2.4 0.8 4.2 2 5.4 3.7 1.2 1.7 1.8 3.7 1.8 6 0 2.4-0.6 4.5-1.9 6.2-1.2 1.7-3 3-5.2 4-2.2 0.9-4.8 1.4-7.8 1.4H50V8zm4.8 4.2V21h8.6c2.2 0 3.9-0.5 5.1-1.4 1.2-1 1.8-2.3 1.8-4 0-1.9-0.6-3.4-1.7-4.4-1.2-1-2.8-1.5-5-1.5h-8.8zm0 12.8V37h9.4c2.4 0 4.3-0.5 5.6-1.4 1.3-0.9 1.9-2.2 1.9-4 0-3.7-2.5-5.5-7.5-5.5H54.8z"/>
  <!-- RADIO text -->
  <text x="92" y="30" font-family="Arial, Helvetica, sans-serif" font-size="15" font-weight="700" fill="#000" letter-spacing="3">RADIO</text>
</svg>
