<?xml version="1.0" encoding="UTF-8"?>
<svg width="1e3" height="147.38" version="1.1" viewBox="0 0 264.58 38.994" xmlns="http://www.w3.org/2000/svg">
 <g transform="translate(-657.32 -3590.6)">
  <path d="m731.44 3615.8c0 4.2369-5.2726 3.9854-5.2726 3.9854h-5.2726v-7.6557h5.2726c5.4262-.035 5.2726 3.6703 5.2726 3.6703m-10.545-15.348h4.0178c4.172.2243 4.0144 3.3272 4.0144 3.3272 0 3.8613-4.613 3.923-4.613 3.923h-3.4192zm9.57 8.7567s3.6088-1.5385 3.5768-5.6172c0 0 .5489-6.6848-8.308-7.5004h-9.8279v28.024h11.265s9.4126.046 9.4126-7.906c-.00016 0 .22091-5.4007-6.1185-7.0005m-25.435-18.61h41.377v38.993h-41.377zm-21.306 25.2c0 4.2368-5.2726 3.9852-5.2726 3.9852h-5.2731v-7.655h5.2731c5.4266-.03 5.2726 3.6698 5.2726 3.6698m-10.546-15.347h4.0186c4.1723.2265 4.0144 3.327 4.0144 3.327 0 3.8594-4.613 3.9229-4.613 3.9229h-3.4201zm9.5709 8.7559s3.6095-1.5385 3.577-5.6169c0 0 .54843-6.6854-8.3084-7.5007h-9.8284v28.025h11.266s9.4125.046 9.4125-7.9077c0 0 .22045-5.4001-6.1186-7.0002m-25.435-18.61h41.377v38.992h-41.377zm128.37 7.5008v5.1776s-5.0539-3.1048-10.639-3.1685c0 0-10.42-.2102-10.889 9.9877 0 0-.37641 9.3723 10.764 9.9068 0 0 4.674.5627 11.015-3.48v5.3631s-8.5057 5.0523-18.359 1.1607c0 0-8.283-3.0249-8.5985-12.951 0 0-.34448-10.209 10.703-13.596 0 0 2.9502-1.1316 8.2515-.6262.00016 0 3.1685.3133 7.7532 2.2255m-32.936 31.493h41.377v-38.993h-41.377z"/>
  <path d="m808.17 3612.7v11.302h-3.8459v-28.062h9.0653q5.337 0 8.1626 2.1999 2.8647 2.1577 2.8647 6.1992 0 2.8259-1.5304 4.7883-1.5304 1.962-4.3561 2.8646 3.9244 5.8481 7.574 12.01h-4.5131q-1.6483-2.9043-3.3748-5.6916-1.6875-2.8247-3.532-5.6501-.62796.048-1.3344.048zm0-3.1389h4.9053q3.7281 0 5.5726-1.2961 1.8447-1.294 1.8447-3.9252 0-5.2572-7.378-5.2572h-4.9445z"/>
  <path d="m851.22 3624q-.70639-1.924-1.4128-3.8071-.66722-1.8837-1.3735-3.7671h-13.186q-1.4128 3.7275-2.7862 7.5742h-4.042q2.7862-7.378 5.6117-14.403 2.8648-7.024 5.808-13.659h4.0814q3.0609 7.0261 5.8866 14.05 2.8646 7.025 5.5725 14.011zm-14.717-10.87h10.674q-1.3342-3.4151-2.6684-6.7499-1.3344-3.3364-2.6686-6.634-1.3737 3.3367-2.7078 6.6731-1.3344 3.3354-2.6294 6.7108z"/>
  <path d="m858.45 3595.9h9.7718q4.3166 0 7.417 1.6487 3.1394 1.6113 4.7876 4.7115 1.6875 3.0996 1.6875 7.5733 0 4.4721-1.6875 7.6517-1.6482 3.1396-4.7876 4.8284-3.1003 1.647-7.4563 1.647h-9.7324zm9.4578 24.764q4.8661 0 7.4954-2.7461 2.6686-2.7482 2.6686-8.0844 0-5.2603-2.6294-7.9269-2.5901-2.7084-7.4955-2.7084h-5.6118v21.466z"/>
  <path d="m886.49 3595.9h3.8851v28.061h-3.8851z"/>
  <path d="m908.4 3595.3q3.0609 0 5.5332 1.0217 2.5116 1.0206 4.2776 2.9428 1.8051 1.9222 2.747 4.6318.94184 2.6675.94184 6.0031 0 3.3373-.9811 6.0446-.94184 2.6672-2.7078 4.5901-1.766 1.9236-4.2776 2.983-2.4723 1.0205-5.5332 1.0205-3.0611 0-5.5725-1.0205-2.4724-1.0594-4.2383-2.983-1.7661-1.9229-2.7472-4.5901-.94178-2.7073-.94178-6.0446 0-3.3356.94178-6.0031.94182-2.7096 2.708-4.6318 1.805-1.9222 4.2774-2.9428 2.5114-1.0217 5.5726-1.0217zm0 25.864q2.9433 0 5.0623-1.3356 2.1193-1.3738 3.2574-3.8847 1.138-2.5516 1.138-6.0446 0-3.4906-1.138-6.0031-1.1381-2.5109-3.2574-3.8457-2.119-1.3744-5.0623-1.3744-2.9433 0-5.0625 1.3744-2.1192 1.3348-3.2571 3.8457-1.1381 2.5125-1.1381 6.0031 0 3.493 1.1381 6.0446 1.138 2.5109 3.2571 3.8847 2.1192 1.3356 5.0625 1.3356z"/>
 </g>
</svg>
