<svg xmlns="http://www.w3.org/2000/svg" width="180.333" height="138.072" viewBox="0 0 180.333 138.072"><g data-name="Group 10568"><g data-name="Group 10431" fill="#000000"><path data-name="Path 12885" d="M.121 133.303H3.2l.966-3.019 1.026 3.019h3.079l-2.475 1.751.906 3.019-2.536-1.811-2.475 1.811.906-3.019-2.475-1.751Z" fill-rule="evenodd"/><path data-name="Path 12886" d="M13.946 133.303h3.079l.966-3.019.966 3.019h3.079l-2.475 1.751.906 3.019-2.475-1.811-2.475 1.811.906-3.019-2.475-1.751Z" fill-rule="evenodd"/><path data-name="Path 12887" d="M27.168 133.303h3.079l.966-3.019.966 3.019h3.139l-2.536 1.751.966 3.019-2.536-1.811-2.475 1.811.906-3.019-2.475-1.751Z" fill-rule="evenodd"/><path data-name="Path 12888" d="M146.102 133.303h3.079l.966-3.019 1.026 3.019h3.079l-2.536 1.751.966 3.019-2.536-1.811-2.475 1.811.906-3.019-2.475-1.751Z" fill-rule="evenodd"/><path data-name="Path 12889" d="M159.082 133.303h3.079l.966-3.019 1.026 3.019h3.079l-2.536 1.751.966 3.019-2.536-1.811-2.475 1.811.906-3.019-2.475-1.751Z" fill-rule="evenodd"/><path data-name="Path 12890" d="M172.063 133.303h3.079l.966-3.019 1.026 3.019h3.079l-2.536 1.751.966 3.019-2.536-1.811-2.475 1.811.906-3.019-2.475-1.751Z" fill-rule="evenodd"/><g data-name="Group 10430"><path data-name="Path 12891" d="M44.012 133.726v-1.694c0-.3-.06-.423-.362-.483h-.3c-.121 0-.121 0-.121-.06s0-.06.181-.06h3.617c.06 0 0 0 0 .06a3.081 3.081 0 0 1-.06.543v.543a.059.059 0 0 1-.06.06c-.06 0-.06 0-.06-.121v-.3c0-.121-.121-.241-.543-.3h-1.147c-.181 0 0 0 0 .06v2.113h1.27c.181 0 .3 0 .362-.121a.13.13 0 0 1 .121-.121c.06 0 0 0 0 .06a4.069 4.069 0 0 1-.06.6v.543c0 .06 0 .181-.06.181s-.06 0-.06-.06v-.3c0-.181-.181-.3-.423-.3H45.16c-.181 0 0 0 0 .06v1.932c0 .543.121.664.966.664s.543 0 .785-.121a.753.753 0 0 0 .362-.6c0-.06 0-.121.06-.121s.06.06.06.121a4.665 4.665 0 0 1-.121.906c0 .181-.121.181-.423.181h-3.26c-.121 0-.181 0-.181-.06s0-.06.121-.06h.3c.181 0 .181-.181.241-.423v-3.139Z"/><path data-name="Path 12892" d="M49.989 137.348c-.121 0-.121-.06-.121-.242v-.906c0-.121 0-.181.06-.181s.06.06.06.121a.9.9 0 0 0 .06.362 1.135 1.135 0 0 0 1.147.664.933.933 0 0 0 .966-.845c0-.483-.06-.6-.725-.966l-.423-.241c-.845-.483-1.087-.966-1.087-1.57a1.754 1.754 0 0 1 1.811-1.389c1.026 0 .845.06 1.026.121.06 0 .121 0 .121.06v.845c0 .543 0 .241-.06.241s-.06 0-.06-.121a.449.449 0 0 0-.181-.423.956.956 0 0 0-.785-.3c-.483 0-.966.241-.966.724s.121.543.724.906l.3.181c.906.543 1.207 1.026 1.207 1.69a1.26 1.26 0 0 1-.724 1.268 2.121 2.121 0 0 1-1.208.3 2.3 2.3 0 0 1-1.147-.181Z"/><path data-name="Path 12893" d="M57.113 132.699h-1.026c-.423 0-.6.06-.664.241-.06.121-.121.181-.121.241a.059.059 0 0 1-.06.06c-.06 0-.06 0-.06-.121a3.485 3.485 0 0 1 .181-.845c0-.06 0-.121.06-.121a1.056 1.056 0 0 1 .3.06h4.286v.966c0 .06 0 .121-.06.121 0 0-.06 0-.06-.121 0-.241-.181-.483-.845-.483h-.906v4.226c0 .181.06.3.3.362h.362c.121 0 .121 0 .121.06 0 0 0 .06-.121.06h-2.049c-.241 0-.121 0-.121-.06s0-.06.121-.06h.241c.121 0 .181-.181.181-.362v-4.226Z"/><path data-name="Path 12894" d="M62.543 135.718h-.06l-.362.906a2.463 2.463 0 0 0-.121.423c0 .121.06.181.3.181h.121c.06 0 .121 0 .121.06 0 0 0 .06-.121.06h-1.63c-.423 0-.121 0-.121-.06s0-.06.06-.06h.181c.3 0 .423-.242.6-.6l1.872-4.286c.06-.181.121-.3.181-.3.121 0 .121.06.181.241.181.362 1.328 3.2 1.811 4.226.3.6.483.725.6.725h.241c.06 0 .121 0 .121.06s0 .06-.3.06h-1.57a.059.059 0 0 1 .06-.06.132.132 0 0 0 .06-.181l-.543-1.389h-1.751Zm1.509-.362-.664-1.751-.664 1.751h1.389Z"/><path data-name="Path 12895" d="M68.765 134.269v-1.449c0-.242-.06-.3-.3-.362h-.3c-.121 0-.121 0-.121-.06s0-.06.181-.06h2.053c1.268 0 1.509.664 1.509 1.026a1.563 1.563 0 0 1-.785 1.207 1.676 1.676 0 0 1 1.328 1.509c0 .845-.6 1.509-1.872 1.509h-2.053c-.121 0-.121 0-.121-.06s0-.06.121-.06h.241c.121 0 .181-.181.181-.362v-2.656Zm.906.121v.06h.3c.242 0 .423 0 .543-.121a.9.9 0 0 0 .3-.724c0-.3-.3-1.026-.906-1.026h-.3s-.06 0-.06.121v1.63Zm0 1.992c0 .423 0 .6.241.664a1.5 1.5 0 0 0 .483.06c.362 0 .845-.181.845-.966s-.121-.845-.664-1.207a.9.9 0 0 0-.6-.181h-.3v1.57Z"/><path data-name="Path 12896" d="M76.009 135.476c0 .906 0 1.328.181 1.449.121.121.423.121.966.121s.664 0 .845-.181a.9.9 0 0 0 .181-.423c0-.06 0-.121.06-.121s.06.06.06.181a1.919 1.919 0 0 1-.121.785c0 .181-.06.181-.423.181h-3.139c-.121 0-.121 0-.121-.06s0-.06.121-.06h.242c.121 0 .181-.181.181-.362v-4.105c0-.241-.06-.3-.3-.362h-.241c-.121 0-.121 0-.121-.06s0-.06.181-.06h1.992c.3 0 .181 0 .181.06s0 .06-.121.06h-.3c-.181 0-.242.121-.242.362v2.656Z"/><path data-name="Path 12897" d="M80.956 134.269v-1.449c0-.241-.06-.3-.242-.362h-.241c-.06 0-.121 0-.121-.06s0 0 .181 0h1.992c0 .06 0 .06-.121.06h-.181c-.181 0-.241.121-.241.362v4.166c0 .181.06.3.3.3h.362c.121 0 .121 0 .121.06 0 0 0 .06-.121.06h-2.053c-.241 0-.121 0-.121-.06s0-.06.121-.06h.242c.121 0 .181-.121.181-.3v-2.717Z"/><path data-name="Path 12898" d="M85.247 137.348c-.121 0-.121-.06-.121-.242v-.906c0-.121 0-.181.06-.181s.06.06.06.121a.9.9 0 0 0 .06.362 1.136 1.136 0 0 0 1.147.664.933.933 0 0 0 .966-.845c0-.483-.06-.6-.724-.966l-.423-.241c-.845-.483-1.087-.966-1.087-1.57a1.754 1.754 0 0 1 1.811-1.389c1.026 0 .845.06 1.026.121.06 0 .121 0 .121.06v.845c0 .543 0 .241-.06.241s-.06 0-.06-.121a.449.449 0 0 0-.181-.423.956.956 0 0 0-.785-.3c-.483 0-.966.241-.966.724s.121.543.724.906l.3.181c.906.543 1.208 1.026 1.208 1.69a1.26 1.26 0 0 1-.725 1.268 2.121 2.121 0 0 1-1.207.3 2.3 2.3 0 0 1-1.147-.181Z"/><path data-name="Path 12899" d="M94.967 134.511v-1.63c0-.241-.06-.3-.3-.362h-.3c-.121 0-.121 0-.121-.06s0-.06.181-.06h1.992c.241 0 .181 0 .181.06s0 .06-.121.06h-.181c-.181 0-.242.121-.242.362v4.105c0 .181.06.3.3.362h.362c.121 0 .121 0 .121.06 0 0 0 .06-.121.06h-2.053c-.241 0-.181 0-.181-.06s0-.06.121-.06h.241c.121 0 .181-.181.181-.362v-1.988H92.37v1.992c0 .181.06.3.3.362h.362c.121 0 .121 0 .121.06 0 0 0 .06-.121.06H90.98c-.3 0-.121 0-.121-.06s0-.06.121-.06h.241c.121 0 .181-.181.181-.362v-4.105c0-.241-.06-.3-.3-.362h-.3c-.121 0-.121 0-.121-.06s0-.06.181-.06h1.992c.3 0 .121 0 .121.06s0 .06-.121.06h-.181c-.181 0-.241.121-.241.362v1.63h2.536Z"/><path data-name="Path 12900" d="M99.735 134.269v-1.449c0-.242-.06-.3-.3-.362h-.3c-.121 0-.121 0-.121-.06s0-.06.181-.06h3.381c.06 0 0 0 0 .06v.845s0 .121-.06.121 0 0 0-.06v-.241c0-.121-.121-.241-.483-.241h-1.087c-.121 0 0 0 0 .06v1.751h1.265c.181 0 .3 0 .362-.121a.211.211 0 0 1 .121-.06c.06 0 0 0 0 .06v.966c0 .06 0 .181-.06.181h-.06v-.241c0-.121-.121-.242-.423-.242h-1.087c-.181 0 0 0 0 .06v1.57c0 .483.241.6.966.6s.483 0 .664-.06.242-.241.3-.483c0-.06 0-.121.06-.121s.06.06.06.181a1.784 1.784 0 0 1-.121.785c0 .181-.121.181-.362.181h-3.079c-.121 0-.121 0-.121-.06s0-.06.121-.06h.242c.121 0 .181-.181.181-.362v-2.656Z"/><path data-name="Path 12901" d="M105.652 134.269v-1.449c0-.242-.06-.3-.3-.362h-.3c-.121 0-.121 0-.121-.06s0-.06.181-.06h2.173a3.809 3.809 0 0 1 2.837.785 2.352 2.352 0 0 1 .664 1.751 2.719 2.719 0 0 1-.785 1.932 3.381 3.381 0 0 1-2.354.785h-2.475c-.121 0-.121 0-.121-.06s0-.06.121-.06h.241c.121 0 .181-.181.181-.362v-2.656Zm.966.724v1.389a1.039 1.039 0 0 0 .06.483c.06.121.362.3.906.3a2.427 2.427 0 0 0 1.57-.483 1.961 1.961 0 0 0 .6-1.69 2.445 2.445 0 0 0-.664-1.69 2.82 2.82 0 0 0-1.992-.664h-.423c-.06 0-.121 0-.121.121v2.178Z"/><path data-name="Path 12902" d="M118.572 133.726V132.7c0-.181 0-.3-.121-.3a5.675 5.675 0 0 0-.906.362h-.121c-.06 0-.06 0-.06-.06s0-.06.06-.121c0 0 1.57-1.026 1.872-1.268.06 0 .121-.121.181-.121s.121.06.121.181v5.434c0 .242.06.362.3.423h.543c.06 0 .06 0 .06.06s0 .06-.121.06h-2.715c-.543 0-.121 0-.121-.06s0-.06.06-.06h.664c.242 0 .3-.181.3-.423v-3.079Z"/><path data-name="Path 12903" d="M127.205 133.424c0 2.234-1.992 3.683-2.958 4.166h-.121c-.06 0-.06 0-.06-.06a.118.118 0 0 1 .121-.121 4.443 4.443 0 0 0 2.113-3.743c0-1.932-.6-2.053-1.207-2.053s-.966.543-.966 1.207c0 1.207.785 1.509 1.087 1.509s.423 0 .543-.121c.06 0 .121-.06.181-.06s.06 0 .06.06v.06a1.678 1.678 0 0 1-2.717-1.207 1.892 1.892 0 0 1 2.053-1.872 2.065 2.065 0 0 1 2.053 2.173Z"/><path data-name="Path 12904" d="M133.484 131.371c.181 0 .181 0 .181.06v.121a19.787 19.787 0 0 0-2.053 5.192v.3c0 .181-.664.483-1.026.483s-.121 0-.121-.121v-.3a32.682 32.682 0 0 1 2.354-5.011h-2.113a1.784 1.784 0 0 0-.785.121.916.916 0 0 0-.241.483c0 .06 0 .121-.06.121s-.06 0-.06-.121c0-.3.121-1.268.121-1.328s0-.121.06-.121a6.446 6.446 0 0 0 1.087.06h2.6Z"/><path data-name="Path 12905" d="M137.408 133.726V132.7c0-.181 0-.3-.121-.3a5.675 5.675 0 0 0-.906.362h-.121c-.06 0-.06 0-.06-.06s0-.06.06-.121c0 0 1.57-1.026 1.872-1.268.06 0 .121-.121.181-.121s.121.06.121.181v5.434c0 .242.06.362.3.423h.543c.06 0 .06 0 .06.06s0 .06-.121.06h-2.715c-.543 0-.121 0-.121-.06s0-.06.06-.06h.664c.241 0 .3-.181.3-.423v-3.079Z"/></g></g><g data-name="Group 10432" fill="#000000"><path data-name="Path 12906" d="M2.656 102.755a7.085 7.085 0 0 1-2.294-5.494 6.324 6.324 0 0 1 2.173-5.132 8.281 8.281 0 0 1 5.917-1.992c2.777 0 1.872.06 2.717.181.724.121 1.328.241 1.871.3a.276.276 0 0 1 .3.242 5.3 5.3 0 0 1-.121 1.026v1.992c0 .3 0 .423-.241.423s-.181-.121-.181-.423a2.384 2.384 0 0 0-.724-1.69 5.472 5.472 0 0 0-3.8-1.147 4.774 4.774 0 0 0-3.5 1.147 6.136 6.136 0 0 0-1.691 4.83 6.293 6.293 0 0 0 5.856 6.641c2.475 0 2.656-.181 3.441-1.026a4.884 4.884 0 0 0 .664-1.207c0-.3.121-.362.241-.362s.181.121.181.3a17.66 17.66 0 0 1-.423 2.475c-.121.3-.181.423-.483.543a10.73 10.73 0 0 1-3.381.423 9.186 9.186 0 0 1-6.4-2.053Z"/><path data-name="Path 12907" d="M15.274 97.502c0-3.2 2.113-7.305 7.667-7.305s7.547 2.717 7.547 6.943a7.61 7.61 0 0 1-15.214.362Zm12.618.3c0-4.166-2.415-6.762-5.434-6.762s-4.588 1.207-4.588 5.856 2.113 6.943 5.735 6.943 4.347-.664 4.347-6.037Z"/><path data-name="Path 12908" d="M35.439 101.97c0 1.449.3 1.932.664 2.053a2.661 2.661 0 0 0 .966.121c.3 0 .3 0 .3.121s-.181.181-.423.181H32.66c-.966 0-.423 0-.423-.181s.121-.121.3-.121a2.2 2.2 0 0 0 .845-.121c.483-.121.543-.664.6-2.294l.181-11.048c0-.362 0-.664.241-.664s.362.242.664.6c.242.241 3.079 3.26 5.8 5.977 1.268 1.268 3.8 3.924 4.105 4.226h.121l-.181-8.392c0-1.147-.181-1.509-.6-1.69a2.825 2.825 0 0 0-.966-.121c-.241 0-.3 0-.3-.181s.181-.181.483-.181h4.045c.906 0 .423 0 .423.181s-.121.181-.362.181h-.543c-.543.121-.664.543-.664 1.57l-.181 11.773c0 .423-.06.6-.242.6a1.2 1.2 0 0 1-.664-.423l-5.494-5.494a77.752 77.752 0 0 1-4.407-4.709l.181 7.848Z"/><path data-name="Path 12909" d="M63.149 103.297c0 .483 0 .543-.241.664a10.008 10.008 0 0 1-4.468.845c-4.588 0-8.633-2.173-8.633-7.305s1.57-5.071 3.26-6.1a9 9 0 0 1 5.011-1.207 21.149 21.149 0 0 1 3.32.3 10.552 10.552 0 0 0 1.449.181c.241 0 .241.121.241.241a26.825 26.825 0 0 0-.121 3.079c0 2.355 0 .362-.181.362s-.181-.121-.181-.241a2.355 2.355 0 0 0-.6-1.57 5.91 5.91 0 0 0-4.166-1.449c-2.113 0-2.415.06-3.683 1.147-1.026.845-1.69 2.294-1.69 4.588 0 3.985 2.536 7 6.46 7s1.147 0 1.57-.181c.3-.121.362-.362.362-.664v-3.924a.951.951 0 0 0-.785-1.087h-.724c-.242 0-.3 0-.3-.121s.121-.181.362-.181h4.89c.6 0 .362 0 .362.181s-.121.121-.241.121h-.483c-.483.121-.664.423-.724 1.087v4.286Z"/><path data-name="Path 12910" d="M68.402 95.812v-3.924a.951.951 0 0 0-.785-1.087h-.726c-.241 0-.3 0-.3-.181s.121-.181.423-.181h5.192a6.284 6.284 0 0 1 3.441.785 3.211 3.211 0 0 1 1.268 2.536c0 1.207-.6 2.656-2.475 4.166 1.63 2.113 2.958 3.743 4.045 4.89a3.622 3.622 0 0 0 2.113 1.268h.543c.181 0 .241 0 .241.121s-.121.181-.362.181h-1.751a4.015 4.015 0 0 1-1.992-.362 9.342 9.342 0 0 1-2.536-2.717c-.724-1.026-1.63-2.294-1.872-2.6-.121-.121-.181-.121-.362-.121h-1.63c-.121 0-.121 0-.121.121v.241a34.2 34.2 0 0 0 .121 3.985c0 .543.181.966.724 1.026.3 0 .664.06.906.06s.242 0 .242.121-.121.181-.362.181h-5.011c-.785 0-.362 0-.362-.181s.06-.121.3-.121a2.263 2.263 0 0 0 .664-.06c.362-.06.483-.483.543-1.026a34.188 34.188 0 0 0 .121-3.985v-3.26Zm2.173 1.509c0 .181 0 .3.181.362a5.148 5.148 0 0 0 1.389.181 1.968 1.968 0 0 0 1.328-.3 3.332 3.332 0 0 0 1.087-2.777c0-2.656-1.751-3.441-2.837-3.441s-.785 0-.966.06c-.121 0-.181.121-.181.242Z"/><path data-name="Path 12911" d="M82.469 95.811v-3.924a.951.951 0 0 0-.785-1.087h-.726c-.242 0-.3 0-.3-.181s.121-.181.423-.181h7.305a2.1 2.1 0 0 0 .785-.121c.121 0 .181-.06.3-.06s.121.06.121.181a5.481 5.481 0 0 0-.121 1.207 4.108 4.108 0 0 1-.121 1.207c0 .121 0 .181-.181.181s-.181-.121-.181-.241a1.544 1.544 0 0 0-.121-.664c-.121-.362-.3-.543-1.268-.664-.3 0-2.294-.06-2.656-.06s-.121 0-.121.181v4.709c0 .121 0 .181.121.181h2.958a1.25 1.25 0 0 0 .906-.3c.121-.121.181-.242.3-.242s.121 0 .121.121-.06.423-.121 1.389c0 .362-.06 1.087-.06 1.268s0 .362-.181.362-.181-.06-.181-.181a2.706 2.706 0 0 0-.06-.664 1.025 1.025 0 0 0-1.026-.724h-2.656c-.483 0-.121.06-.121.181v4.347c0 1.268.362 1.57 2.234 1.57s1.268 0 1.751-.241a1.578 1.578 0 0 0 .845-1.389c0-.181.06-.3.181-.3s.121.121.121.362a11.236 11.236 0 0 1-.242 2.053c-.121.483-.3.483-1.026.483H81.2c-.362 0-.362 0-.362-.181s.06-.121.3-.121a2.262 2.262 0 0 0 .664-.06c.362-.06.483-.483.543-1.026a34.223 34.223 0 0 0 .121-3.985v-3.381Z"/><path data-name="Path 12912" d="M93.215 104.324c-.3-.121-.362-.241-.362-.6a19.227 19.227 0 0 1 .121-2.415c0-.3.06-.483.242-.483s.181.181.181.3a3.318 3.318 0 0 0 .181.966 2.554 2.554 0 0 0 2.656 1.872 2.24 2.24 0 0 0 2.475-2.113c0-.966-.3-1.751-1.811-2.958l-.845-.664c-2.053-1.63-2.777-2.9-2.777-4.407s1.69-3.5 4.286-3.5 1.992.181 2.475.3a.221.221 0 0 1 .241.241c0 .242-.06.785-.06 2.234s0 .543-.181.543-.181-.121-.181-.362a2.238 2.238 0 0 0-.483-1.207 2.426 2.426 0 0 0-2.053-.906 2.063 2.063 0 0 0-2.234 1.932c0 1.147.423 1.509 1.992 2.656l.543.362c2.234 1.69 3.079 2.958 3.079 4.769a3.152 3.152 0 0 1-1.751 3.26 5.322 5.322 0 0 1-2.958.785 6.6 6.6 0 0 1-2.717-.483Z"/><path data-name="Path 12913" d="M104.082 104.324c-.3-.121-.362-.241-.362-.6a19.227 19.227 0 0 1 .121-2.415c0-.3.06-.483.242-.483s.181.181.181.3a3.318 3.318 0 0 0 .181.966 2.554 2.554 0 0 0 2.656 1.872 2.24 2.24 0 0 0 2.475-2.113c0-.966-.3-1.751-1.811-2.958l-.845-.664c-2.053-1.63-2.777-2.9-2.777-4.407s1.69-3.5 4.286-3.5 1.992.181 2.475.3a.221.221 0 0 1 .241.241c0 .242-.06.785-.06 2.234s0 .543-.181.543-.181-.121-.181-.362a2.238 2.238 0 0 0-.483-1.207 2.426 2.426 0 0 0-2.053-.906 2.063 2.063 0 0 0-2.234 1.932c0 1.147.423 1.509 1.992 2.656l.543.362c2.234 1.69 3.079 2.958 3.079 4.769a3.152 3.152 0 0 1-1.751 3.26 5.323 5.323 0 0 1-2.958.785 6.6 6.6 0 0 1-2.717-.483Z"/><path data-name="Path 12914" d="M115.976 95.811v-3.924c0-.6-.242-.966-.664-1.026-.181 0-.423-.06-.664-.06s-.3 0-.3-.181.121-.121.423-.121h4.709c.724 0 .362 0 .362.121s-.121.181-.3.181h-.543c-.483.121-.664.423-.664 1.087v7.184c0 1.811 0 3.26.06 4.105 0 .483.181.845.724.906.241 0 .664.06.966.06s.3 0 .3.121-.121.181-.362.181h-5.257c-.724 0-.362 0-.362-.181s.06-.121.3-.121a2.263 2.263 0 0 0 .664-.06c.362-.06.483-.362.543-.906a34.817 34.817 0 0 0 .121-4.045v-3.26Z"/><path data-name="Path 12915" d="M122.134 97.502c0-3.2 2.113-7.305 7.728-7.305s7.547 2.717 7.547 6.943a7.61 7.61 0 0 1-15.214.362Zm12.618.3c0-4.166-2.415-6.762-5.433-6.762s-4.588 1.207-4.588 5.856 2.113 6.943 5.735 6.943 4.347-.664 4.347-6.037Z"/><path data-name="Path 12916" d="M142.359 101.97c0 1.449.3 1.932.664 2.053a2.662 2.662 0 0 0 .966.121c.3 0 .3 0 .3.121s-.181.181-.423.181h-4.286c-.966 0-.423 0-.423-.181s.121-.121.3-.121a2.2 2.2 0 0 0 .845-.121c.483-.121.543-.664.6-2.294l.181-11.048c0-.362 0-.664.242-.664s.362.242.664.6c.241.241 3.079 3.26 5.8 5.977 1.268 1.268 3.8 3.924 4.105 4.226h.121l-.181-8.392c0-1.147-.181-1.509-.6-1.69a2.825 2.825 0 0 0-.966-.121c-.241 0-.3 0-.3-.181s.181-.181.483-.181h4.045c.906 0 .423 0 .423.181s-.121.181-.362.181h-.543c-.543.121-.664.543-.664 1.57l-.181 11.773c0 .423-.06.6-.242.6a.935.935 0 0 1-.6-.423l-5.494-5.494a77.752 77.752 0 0 1-4.407-4.709l.181 7.848Z"/><path data-name="Path 12917" d="M159.686 99.676c-.121 0-.121 0-.181.121l-1.026 2.656a4.017 4.017 0 0 0-.3 1.147c0 .362.181.6.724.6h.3c.241 0 .3 0 .3.121s-.121.181-.3.181h-4.166c-.966 0-.362 0-.362-.181s.06-.121.241-.121h.6c.845-.121 1.207-.724 1.57-1.69l4.649-11.712c.242-.543.362-.724.543-.724s.3.181.483.6c.423 1.026 3.441 8.633 4.649 11.471.724 1.69 1.268 1.932 1.63 2.053.3 0 .543.06.785.06s.242 0 .242.121-.181.181-.845.181h-3.5c-.362 0-.543 0-.543-.121s.06-.121.241-.181c.121 0 .242-.181.181-.423l-1.509-3.924c0-.121-.121-.121-.181-.121h-4.166Zm3.8-.966c.121 0 .121 0 .121-.121l-1.69-4.588c0-.06 0-.181-.121-.181s-.121.121-.121.181l-1.691 4.588c0 .06 0 .121.06.121Z"/><path data-name="Path 12918" d="M174.356 99.133c0 2.415 0 3.683.362 3.985.3.3.785.423 2.234.423s1.69 0 2.173-.543a2.452 2.452 0 0 0 .483-1.147c0-.181 0-.3.181-.3s.121.121.121.3a11.014 11.014 0 0 1-.3 2.113c-.121.423-.181.483-1.147.483h-7.788c-.362 0-.362 0-.362-.181s.06-.121.3-.121a2.266 2.266 0 0 0 .664-.06c.362-.06.483-.483.543-1.026a34.205 34.205 0 0 0 .121-3.985V91.89a.951.951 0 0 0-.785-1.087h-.6c-.241 0-.3 0-.3-.181s.121-.181.423-.181h5.071c.724 0 .362 0 .362.181s-.121.181-.362.181h-.724c-.483.121-.664.423-.664 1.087v7.245Z"/></g><g data-name="Group 10433" fill="#000000"><path data-name="Path 12919" d="M2.536 112.957v-4.528c0-.725-.241-1.087-.906-1.207-.181 0-.543-.06-.845-.06s-.362 0-.362-.181.121-.181.483-.181c1.147 0 2.475.06 2.9.06 1.026 0 1.872-.06 2.6-.06 3.864 0 4.588 2.113 4.588 3.2a4.672 4.672 0 0 1-2.173 3.743c1.751.6 3.924 2.113 3.924 4.649s-1.811 4.709-5.735 4.709-.906 0-1.509-.06c-.664 0-1.268-.06-1.63-.06H1.154c-.483 0-.423-.06-.423-.241s.06-.181.362-.181a2.953 2.953 0 0 0 .785-.06c.423-.06.543-.543.6-1.207a45.591 45.591 0 0 0 .121-4.588v-3.8Zm2.536.362c0 .181.06.241.181.241.181 0 .543.06 1.026.06a2.042 2.042 0 0 0 1.57-.423 2.808 2.808 0 0 0 .906-2.294c0-1.087-.845-3.321-2.717-3.321h-.724q-.181 0-.181.362v5.313Zm2.838 1.751a3.388 3.388 0 0 0-1.811-.543h-.906c-.3 0-.121 0-.121.121v5.071c0 1.389.06 1.811.724 2.053a3.837 3.837 0 0 0 1.57.241 2.525 2.525 0 0 0 2.6-2.777c0-2.234-.423-3.139-2.113-4.286Z"/><path data-name="Path 12920" d="M19.983 116.76c0 2.777 0 4.226.423 4.649.362.3.906.483 2.6.483s1.992 0 2.536-.6a2.625 2.625 0 0 0 .543-1.268c0-.181.06-.3.241-.3s.181.121.181.362a15.071 15.071 0 0 1-.3 2.475c-.121.483-.241.6-1.328.6s-2.656 0-3.622-.06c-.966 0-1.751-.06-2.6-.06H15.94c-.483 0-.423-.06-.423-.242s.06-.181.362-.181a2.946 2.946 0 0 0 .785-.06c.423-.06.543-.543.6-1.207a45.6 45.6 0 0 0 .121-4.588v-8.334c0-.725-.241-1.087-.906-1.207-.181 0-.423-.06-.724-.06s-.362 0-.362-.181.121-.181.483-.181c1.026 0 2.355.06 2.958.06s2.113-.06 2.9-.06.423 0 .423.181-.121.181-.362.181a3.979 3.979 0 0 0-.845.06c-.6.121-.724.483-.785 1.207v8.331Z"/><path data-name="Path 12921" d="M31.576 117.364c-.121 0-.121 0-.181.181l-1.147 3.079a3.348 3.348 0 0 0-.3 1.328c0 .362.181.664.845.664h.3c.241 0 .3 0 .3.181s-.121.241-.362.241c-.664 0-1.63-.06-2.294-.06s-1.389.06-2.536.06-.423 0-.423-.241.06-.181.241-.181h.664c.966-.121 1.389-.845 1.811-1.932l5.373-13.523c.241-.6.362-.845.6-.845s.3.181.543.664c.543 1.207 3.985 9.961 5.313 13.222.845 1.932 1.449 2.234 1.872 2.355a4.876 4.876 0 0 0 .906.06c.241 0 .3 0 .3.181s-.181.241-.966.241h-4.037c-.362 0-.664 0-.664-.181s.06-.181.3-.181a.336.336 0 0 0 .181-.483l-1.751-4.588c0-.121-.121-.121-.241-.121h-4.769Zm4.407-1.087c.121 0 .121-.06.121-.121l-1.932-5.313c0-.06 0-.181-.121-.181s-.121.121-.121.181l-1.992 5.313c0 .06 0 .121.06.121Z"/><path data-name="Path 12922" d="M46.125 120.926a8.143 8.143 0 0 1-2.656-6.339 7.271 7.271 0 0 1 2.536-5.917 9.474 9.474 0 0 1 6.764-2.294c3.2 0 2.113.06 3.139.242.845.121 1.509.3 2.173.362.241 0 .3.121.3.242s-.06.423-.121 1.207c0 .724 0 1.872-.06 2.294 0 .3-.06.483-.242.483s-.241-.181-.241-.483a3.071 3.071 0 0 0-.845-1.992 6.632 6.632 0 0 0-4.347-1.328 5.611 5.611 0 0 0-4.045 1.328 7.218 7.218 0 0 0-1.992 5.554c0 5.132 3.864 7.667 6.762 7.667s3.079-.242 3.924-1.208a3.278 3.278 0 0 0 .724-1.449c.06-.362.121-.423.3-.423s.181.121.181.3a17.3 17.3 0 0 1-.483 2.837c-.121.362-.181.483-.543.6a11.816 11.816 0 0 1-3.864.483 10.707 10.707 0 0 1-7.365-2.355Z"/><path data-name="Path 12923" d="M65.626 113.923h.121c.724-.785 3.864-3.985 4.468-4.709s1.087-1.268 1.087-1.63-.06-.362-.3-.423c-.181 0-.3-.06-.3-.241s.121-.181.362-.181c.423 0 1.63.06 2.234.06s1.872-.06 2.536-.06.362 0 .362.181-.121.181-.3.181a4.106 4.106 0 0 0-1.268.241 6.5 6.5 0 0 0-2.294 1.63c-.664.664-3.924 3.864-4.649 4.649.785 1.026 5.011 5.554 5.856 6.339a10 10 0 0 0 3.079 2.294 4.1 4.1 0 0 0 1.328.3c.241 0 .3 0 .3.181s-.121.241-.543.241h-3.381a4.405 4.405 0 0 1-2.656-1.389c-.966-.845-5.192-5.8-5.615-6.4l-.242-.3h-.121v1.932c0 1.992 0 3.683.06 4.588 0 .6.241 1.087.785 1.147.3 0 .785.06 1.026.06s.3.06.3.181-.181.242-.423.242c-1.207 0-2.536-.06-3.079-.06s-1.872.06-2.717.06-.423-.06-.423-.242.06-.181.362-.181a2.951 2.951 0 0 0 .785-.06c.423-.06.543-.543.6-1.207a45.6 45.6 0 0 0 .121-4.588v-8.33c0-.724-.241-1.087-.906-1.207-.181 0-.543-.06-.845-.06s-.362 0-.362-.181.121-.181.483-.181c1.147 0 2.475.06 3.019.06s1.871-.06 2.6-.06.423 0 .423.181-.121.181-.3.181a2.265 2.265 0 0 0-.6.06c-.6.121-.724.483-.785 1.207v5.494Z"/><path data-name="Path 12924" d="M86.273 120.926a8.143 8.143 0 0 1-2.656-6.339 7.271 7.271 0 0 1 2.536-5.917 9.474 9.474 0 0 1 6.764-2.294c3.2 0 2.113.06 3.139.242.845.121 1.509.3 2.173.362.242 0 .3.121.3.242s-.06.423-.121 1.207c0 .724 0 1.872-.06 2.294 0 .3-.06.483-.242.483s-.241-.181-.241-.483a3.071 3.071 0 0 0-.845-1.992 6.632 6.632 0 0 0-4.347-1.328 5.611 5.611 0 0 0-4.045 1.328 7.218 7.218 0 0 0-1.992 5.554c0 5.132 3.864 7.667 6.762 7.667s3.079-.242 3.924-1.208a3.277 3.277 0 0 0 .724-1.449c.06-.362.121-.423.3-.423s.181.121.181.3a17.3 17.3 0 0 1-.483 2.837c-.121.362-.181.483-.543.6a11.816 11.816 0 0 1-3.864.483 10.707 10.707 0 0 1-7.365-2.355Z"/><path data-name="Path 12925" d="M104.687 117.364c-.121 0-.121 0-.181.181l-1.147 3.079a3.348 3.348 0 0 0-.3 1.328c0 .362.181.664.845.664h.3c.241 0 .3 0 .3.181s-.121.241-.362.241c-.664 0-1.63-.06-2.294-.06s-1.449.06-2.536.06-.423 0-.423-.241.06-.181.241-.181h.664c.966-.121 1.389-.845 1.811-1.932l5.373-13.523c.241-.6.362-.845.6-.845s.3.181.543.664c.543 1.207 3.985 9.961 5.313 13.222.845 1.932 1.449 2.234 1.872 2.355a4.876 4.876 0 0 0 .906.06c.241 0 .3 0 .3.181s-.181.241-.966.241h-4.045c-.362 0-.664 0-.664-.181s.06-.181.3-.181c.181 0 .3-.241.181-.483l-1.69-4.588c0-.121-.121-.121-.241-.121h-4.764Zm4.347-1.087c.121 0 .121-.06.121-.121l-1.932-5.313c0-.06 0-.181-.121-.181s-.121.121-.121.181l-1.992 5.313c0 .06 0 .121.06.121h3.985Z"/><path data-name="Path 12926" d="M117.848 112.957v-4.528c0-.725-.242-1.087-.906-1.207-.181 0-.543-.06-.845-.06s-.362 0-.362-.181.181-.181.483-.181c1.147 0 2.475.06 3.139.06s1.872-.06 2.656-.06.483 0 .483.181-.121.181-.362.181a2.055 2.055 0 0 0-.6.06c-.6.121-.724.483-.785 1.207v7.547c0 3.139.6 4.407 1.69 5.313a4.061 4.061 0 0 0 2.717.906 4.493 4.493 0 0 0 2.958-1.147c1.207-1.207 1.268-3.139 1.268-5.313v-7.184c0-.724-.241-1.087-.906-1.207-.181 0-.543-.06-.785-.06s-.362 0-.362-.181.181-.181.423-.181c1.087 0 2.475.06 2.475.06.242 0 1.63-.06 2.475-.06s.423 0 .423.181-.121.181-.362.181a2.052 2.052 0 0 0-.6.06c-.6.121-.725.483-.785 1.207v6.822c0 2.415-.241 4.951-2.053 6.46a6.345 6.345 0 0 1-4.468 1.57 6.488 6.488 0 0 1-4.769-1.509c-1.087-.966-1.932-2.6-1.932-5.675v-3.139Z"/><path data-name="Path 12927" d="M137.408 120.926a8.143 8.143 0 0 1-2.656-6.339 7.271 7.271 0 0 1 2.536-5.917 9.531 9.531 0 0 1 6.822-2.294c3.26 0 2.113.06 3.139.242.845.121 1.509.3 2.173.362.241 0 .3.121.3.242s-.06.423-.121 1.207c0 .724 0 1.872-.06 2.294 0 .3-.06.483-.241.483s-.242-.181-.242-.483a3.071 3.071 0 0 0-.845-1.992 6.51 6.51 0 0 0-4.347-1.328 5.512 5.512 0 0 0-4.045 1.328 7.218 7.218 0 0 0-1.992 5.554c0 5.132 3.864 7.667 6.762 7.667s3.079-.242 3.924-1.208a3.277 3.277 0 0 0 .724-1.449c.06-.362.121-.423.3-.423s.181.121.181.3a17.3 17.3 0 0 1-.483 2.837c-.121.362-.181.483-.543.6a11.816 11.816 0 0 1-3.864.483 10.708 10.708 0 0 1-7.366-2.355Z"/><path data-name="Path 12928" d="M153.347 112.957v-4.528c0-.725-.241-1.087-.906-1.207-.181 0-.543-.06-.845-.06s-.362 0-.362-.181.121-.181.483-.181c1.147 0 2.475.06 3.139.06s1.871-.06 2.656-.06.483 0 .483.181-.121.181-.362.181a2.055 2.055 0 0 0-.6.06c-.6.121-.724.483-.785 1.207v7.547c0 3.139.6 4.407 1.69 5.313a4.011 4.011 0 0 0 2.656.906 4.606 4.606 0 0 0 2.958-1.147c1.208-1.207 1.268-3.139 1.268-5.313v-7.184c0-.724-.241-1.087-.906-1.207-.181 0-.543-.06-.785-.06s-.362 0-.362-.181.121-.181.423-.181c1.087 0 2.475.06 2.475.06.241 0 1.63-.06 2.475-.06s.423 0 .423.181-.121.181-.362.181a2.053 2.053 0 0 0-.6.06c-.6.121-.724.483-.785 1.207v6.822c0 2.415-.242 4.951-2.053 6.46a6.345 6.345 0 0 1-4.468 1.57 6.487 6.487 0 0 1-4.769-1.509c-1.087-.966-1.932-2.6-1.932-5.675v-3.139Z"/><path data-name="Path 12929" d="M171.399 122.737c-.362-.121-.423-.241-.423-.724a26.55 26.55 0 0 1 .121-2.837c0-.3.06-.543.242-.543s.241.181.241.362a3.72 3.72 0 0 0 .181 1.087 3 3 0 0 0 3.079 2.173 2.643 2.643 0 0 0 2.9-2.475c0-1.147-.3-2.053-2.113-3.441l-.966-.785c-2.354-1.872-3.2-3.381-3.2-5.071s1.992-4.045 4.95-4.045 2.294.241 2.838.362a.276.276 0 0 1 .3.241c0 .3-.06.906-.06 2.6s-.06.664-.242.664-.241-.121-.241-.362a2.863 2.863 0 0 0-.543-1.449 2.692 2.692 0 0 0-2.354-1.026 2.346 2.346 0 0 0-2.536 2.234c0 1.328.483 1.751 2.294 3.079l.6.423c2.6 1.932 3.5 3.441 3.5 5.494a3.64 3.64 0 0 1-1.991 3.739 6.539 6.539 0 0 1-3.441.906 7.469 7.469 0 0 1-3.139-.543Z"/></g><g data-name="Group 10434"><path data-name="Path 12930" d="M88.385 28.861c.785.121.845.6.906 1.449 0 .845-.121 4.468-.121 5.011s-.543.664-1.208.483-.785-.483-.724-.906v-5.557a1.273 1.273 0 0 1 1.147-.48Z" fill="none"/><path data-name="Path 12931" d="M90.857 29.824a1.037 1.037 0 0 1 1.026.906c0 .543.181 4.166.121 4.588a.882.882 0 0 1-1.026.845c-.6-.121-.543-.3-.6-.845l-.121-4.83s.181-.724.6-.724Z" fill="none"/><path data-name="Path 12932" d="M59.949 84.22c1.147-.543 2.355 0 2.294.483v.483h-3.5a2.469 2.469 0 0 1 1.207-.966Z" fill="none"/><path data-name="Path 12933" d="M85.125 44.978c1.328 0 1.207.664 1.328 1.871a45.17 45.17 0 0 1-.483 8.15c-.362 1.026-1.328.543-1.147 1.509.181.906.543 2.958-.785 4.105-1.328 1.207-2.053 1.268-2.6.785-.543-.543-1.389-1.509-.423-1.57.966 0 .845.362 1.69 0 .845-.423 1.268-2.113.785-3.622s-.845-1.751-1.509-1.57a2.274 2.274 0 0 1-1.207 0s.845-7 1.328-8.09c.483-1.147 1.69-1.57 3.079-1.509Z" fill="none"/><path data-name="Path 12934" d="M51.015 84.642c.785-.121.543-1.026.906-1.328.362-.362 1.087.3 1.509.242.423 0-.121-.845.242-1.328.362-.423.6.423 1.63.362 1.087 0 0-.966.362-1.509s1.328.3 2.173.181.181-1.328.906-1.449 1.026.664 1.449.6c.423-.121-.242-1.026.724-1.328.966-.362 1.389.362 1.932.181.6-.121 0-.966.543-1.087s1.328.543 1.751.543.362-.6.906-1.087c.6-.483 1.389.785 1.811.845.423 0 0-1.087.785-1.389.845-.3.483.6 1.872.543 1.389-.121.121-.906 1.147-1.207s1.207.543 1.932.483c.724 0 .241-.543.785-.845s1.026.543 1.509.6c.483 0 .423-.966 1.207-1.207s.543.664 1.57.906.845-.483 1.751-.906.845.543 1.871.362c1.026-.121.543-.6 1.207-.785s1.69.724 2.053.724.6-.664 1.207-.906 1.63.845 2.113.906c.423 0 1.207-.785 2.355-.906s1.811 1.268 2.656 1.328c.845 0 1.026-.6 1.389-.6s1.328.906 2.113.966c.785 0 1.087-.724 1.63-.845s.906 1.147 1.872 1.268.906-.362 1.449-.543c.6-.181 1.811.785 2.173 1.026s.6-.3 1.932-.543 1.268.966 1.751 1.207.966-.423 1.63-.6c.664-.121 1.389 1.087 1.932 1.328.6.242.725-.241 1.811-.3 1.087 0 .362.724.362.724h2.717c1.268 0 1.147.483 2.234.664s1.389.362 1.872 1.57c.483 1.147 1.872.362 2.837.785.966.362.664.3 1.389 1.328.664 1.087 1.872 0 3.441.845a1.642 1.642 0 0 1 .725.725h-3.32c-1.63-.664-3.8-1.509-6.037-2.234-4.769-1.57-24.692-4.89-34.171-4.89a78.161 78.161 0 0 0-24.994 4.286 44.778 44.778 0 0 0-7.064 2.9h-4.288l.06-.06c.362-.362.906-.362 1.63-.483Z" fill="none"/><path data-name="Path 12935" d="M85.729 25.601a28.471 28.471 0 0 0-4.528.6c-1.751.543-2.415 1.63-3.26 1.268-.905-.362-.362-1.389.181-1.63a14.029 14.029 0 0 1 3.864-1.57c1.872-.362 3.5-.483 4.166-.181s.906 1.268-.423 1.449Z" fill="none"/><path data-name="Path 12936" d="M80.658 29.1a1.221 1.221 0 0 1 1.268 1.207c.121.785 0 4.528 0 5.132a1.32 1.32 0 0 1-1.328 1.207c-.664 0-.906-.543-.906-1.57v-5.192a1.333 1.333 0 0 1 1.026-.785Z" fill="none"/><path data-name="Path 12937" d="M84.522 42.019a1.194 1.194 0 0 1 1.268 1.268c-.543.362-2.415.724-3.8 1.268s-.543-.543-1.57-.845c-.966-.3-1.992 1.087-3.32 1.328s-1.026 0-.906-.906 1.751-1.207 3.622-1.63a17.283 17.283 0 0 1 4.706-.483Z" fill="none"/><path data-name="Path 12938" d="M82.952 22.58c-1.449.121-1.509.6-2.294.785s-.724 0-.966-.543c-.241-.483.543-.785.543-.785s.906-.3 2.053-.6a4.287 4.287 0 0 1 2.838-.181c.785.362.966.906.543 1.328-.483.483-1.147 0-2.6 0Z" fill="none"/><path data-name="Path 12939" d="M89.532 79.33c2.113-.121 3.5.845 3.622 1.389v4.468h-1.69v-2.536c-.06-1.207-1.57-1.268-1.57-1.268-.724 0-2.053.724-2.053 1.389v2.415h-1.448v-3.864c.121-1.63 1.026-1.872 3.2-1.992Z" fill="none"/><path data-name="Path 12940" d="M98.223 79.933c1.509 0 3.079.845 3.2 1.57v3.622h-1.57c0-.845.06-1.63 0-1.992a1.882 1.882 0 0 0-1.63-1.932 1.726 1.726 0 0 0-2.113 1.509v2.415h-1.687c0-1.811 0-3.562.06-4.166.121-1.389 2.173-1.087 3.683-1.087Z" fill="none"/><path data-name="Path 12941" d="M108.494 82.349a14.865 14.865 0 0 1 .121 2.9h-1.389v-1.57c-.06-.966-1.63-1.207-1.63-1.207a1.286 1.286 0 0 0-1.087.906c0 .181 0 .906-.06 1.811h-1.755c0-1.69.121-3.26.543-3.864.966-1.633 4.951.299 5.257 1.024Z" fill="none"/><path data-name="Path 12942" d="M110.663 82.227c1.147-.6 4.045.906 4.166 1.509 0 .121.06.724.06 1.449h-1.271a1.477 1.477 0 0 0-1.268-1.328c-.785-.242-1.147.3-1.147.906v.423h-1.685v-.181c0-1.63-.121-2.234 1.026-2.838Z" fill="none"/><path data-name="Path 12943" d="M66.168 82.107c1.69-.483 2.656 0 2.656.906v2.173h-1.693c0-.845-.121-1.328-1.147-1.268a1.359 1.359 0 0 0-1.207.966v.3h-1.446v-.423c0-1.328 1.147-2.234 2.838-2.717Z" fill="none"/><path data-name="Path 12944" d="M120.685 85.186h-4.528a4.582 4.582 0 0 1 .06-.966c.24-1.57 3.502.181 4.468.966Z" fill="none"/><path data-name="Path 12945" d="M70.213 84.039c.121-1.147-.121-1.57.6-2.415.664-.845 2.958-1.328 4.226-1.328s1.268.543 1.389 1.328c0 .3.06 1.811.121 3.622H75.16a5.921 5.921 0 0 0-.06-1.207c-.121-.906-1.63-1.087-1.63-1.087-.845.06-1.509.543-1.509 1.207v1.026h-1.748v-1.207Z" fill="none"/><path data-name="Path 12946" d="M85.185 28.858a32.954 32.954 0 0 1 .3 5.917c-.181.785-1.751 1.087-1.811.121 0-.966-.181-5.554-.181-6.037.002-.001 1.451-.907 1.692-.001Z" fill="none"/><path data-name="Path 12947" d="M81.443 79.692c1.992-.181 3.26.6 3.381 1.328.06.3.06 2.173.121 4.105h-1.449v-1.389c0-.906-.3-1.811-1.57-1.751s-2.053.483-2.053 1.268 0 1.026-.06 1.872h-1.932a37.6 37.6 0 0 1 .181-3.8c.181-1.087 1.389-1.509 3.441-1.69Z" fill="none"/><path data-name="Path 12948" d="M102.392 67.798c-.3 0-3.321 0-3.924-.423-.6-.362-.242-1.389.785-1.389s3.2.241 3.441.845c.181.543.423.906-.241.966Z" fill="none"/><path data-name="Path 12949" d="M111.871 61.703c-.543-.543-3.864-7.366-3.864-7.366s.664-.724 1.268-.241c.543.483 4.166 7 3.924 7.728-.181.724-.845.483-1.328 0Z" fill="none"/><path data-name="Path 12950" d="M113.621 68.222c-.664-.241-.362-.906.6-.906a11.428 11.428 0 0 1 4.226 1.751.6.6 0 0 1-.121.664s-4.045-1.268-4.709-1.57Z" fill="none"/><path data-name="Path 12951" d="M106.618 63.21c0-.362-1.147-4.286-1.509-5.494s0-1.63.785-1.268c.785.423 2.053 4.83 2.053 5.675 0 .906-1.328 1.389-1.328 1.026Z" fill="none"/><path data-name="Path 12952" d="M121.168 76.553c-1.268.3-2.475.181-2.838-.543a1.511 1.511 0 0 1 1.389-.845c.966.121 2.717 1.087 1.449 1.389Z" fill="none"/><path data-name="Path 12953" d="M85.427 40.691h-3.2c-1.268 0-2.717.725-3.562.845s-1.992-1.268-.543-1.932a17.265 17.265 0 0 1 5.675-1.147c1.751 0 3.562.6 3.2 1.449-.3.845-.845.785-1.69.785Z" fill="none"/><path data-name="Path 12954" d="M102.029 71.723c-.724 0-3.441-.725-4.045-1.63s3.5-.181 5.011.181c1.51.423-.966 1.449-.966 1.449Z" fill="none"/><path data-name="Path 12955" d="M106.135 70.636c1.328 0 3.441.242 3.32 1.026s-.362.785-.845.725c-.483 0-3.019-.181-3.019-.181s-.784-1.57.544-1.57Z" fill="none"/><path data-name="Path 12956" d="M95.267 67.255c-.242 0-3.019-.181-3.019-.181s-1.69-1.087 0-1.328c1.751-.241 4.105.181 4.226.785.121.543 0 .724-1.268.785Z" fill="none"/><path data-name="Path 12957" d="M115.674 70.636c.664.664.785 1.328 0 1.328 0 0-2.234-.181-2.113-.845a1.416 1.416 0 0 1 2.113-.543Z" fill="none"/><path data-name="Path 12958" d="M98.588 63.15s-.845-4.83.121-4.468 1.932 3.019 1.207 3.985c-.724.905-1.328.483-1.328.483Z" fill="none"/><path data-name="Path 12959" d="M96.174 82.831a1.792 1.792 0 0 1 2.113-1.509 1.843 1.843 0 0 1 1.63 1.932v1.992h-3.743Z" fill="#000000"/><path data-name="Path 12960" d="M81.926 82.048c1.268-.06 1.57.845 1.57 1.751v1.389h-3.683c0-.845.06-1.57.06-1.872 0-.787.785-1.209 2.053-1.268Z" fill="#000000"/><path data-name="Path 12961" d="M112.414 83.858a1.608 1.608 0 0 1 1.268 1.328h-2.355v-.423c0-.664.362-1.147 1.147-.906Z" fill="#000000"/><path data-name="Path 12962" d="M89.895 81.382s1.509.06 1.57 1.268v2.532h-3.683v-2.415c0-.724 1.328-1.389 2.053-1.389Z" fill="#000000"/><path data-name="Path 12963" d="M66.047 83.921c.966-.06 1.147.423 1.147 1.268H64.84v-.3a1.359 1.359 0 0 1 1.207-.968Z" fill="#000000"/><path data-name="Path 12964" d="M105.531 82.469s1.57.181 1.63 1.207v1.57h-2.777a11.822 11.822 0 0 1 .06-1.811 1.219 1.219 0 0 1 1.087-.906Z" fill="#000000"/><path data-name="Path 12965" d="M73.473 82.952s1.509.121 1.63 1.087a11.56 11.56 0 0 0 .06 1.207h-3.2V84.22c0-.664.664-1.147 1.509-1.207Z" fill="#000000"/><path data-name="Path 12966" d="M128.413 84.522c-1.57-.845-2.717.181-3.441-.845-.664-1.087-.362-.966-1.389-1.328-.966-.362-2.354.362-2.838-.785a2.039 2.039 0 0 0-1.872-1.57c-1.087-.181-.966-.664-2.234-.664h-2.716s.724-.785-.362-.724c-1.087 0-1.207.543-1.811.3s-1.268-1.509-1.932-1.328c-.664.121-1.147.845-1.63.6s-.423-1.449-1.751-1.207-1.509.785-1.932.543c-.362-.241-1.63-1.207-2.173-1.026-.6.181-.483.6-1.449.543-.966-.121-1.328-1.389-1.872-1.268s-.845.906-1.63.845c-.785 0-1.69-.966-2.113-.966s-.6.6-1.388.6c-.845 0-1.509-1.449-2.656-1.328s-1.932.966-2.355.906c-.423 0-1.509-1.147-2.113-.906s-.906.906-1.207.906-1.389-.906-2.053-.724-.181.6-1.208.785c-1.026.121-.906-.845-1.872-.362-.906.423-.724 1.147-1.751.906s-.785-1.147-1.57-.906-.724 1.268-1.208 1.207c-.483 0-.966-.845-1.509-.6-.543.3 0 .785-.785.845-.724 0-.906-.785-1.932-.483s.181 1.087-1.147 1.207c-1.389.121-1.026-.845-1.872-.543s-.362 1.449-.785 1.389c-.423 0-1.207-1.328-1.811-.845s-.483 1.087-.906 1.087-1.207-.6-1.751-.543c-.543.121 0 .905-.543 1.087-.6.121-.966-.543-1.932-.181s-.3 1.268-.724 1.328c-.423.121-.725-.724-1.449-.6s-.121 1.328-.906 1.449c-.845.121-1.751-.725-2.173-.181-.362.543.724 1.449-.362 1.509-1.087 0-1.328-.845-1.63-.362-.362.423.181 1.268-.242 1.328-.423 0-1.147-.6-1.509-.241s-.121 1.207-.906 1.328-1.268.121-1.63.483l-.06.06h-1.81a17.337 17.337 0 0 1 2.656-2.053 60.515 60.515 0 0 1 24.451-8.633c12.075-1.57 28.073-.121 35.5 1.751 7.426 1.811 11.531 2.717 11.531 2.717l.181-.785s-14.308-4.045-19.5-4.769c-5.192-.664-6.037-1.087-6.037-1.087s0-2.053-1.449-1.811c-1.449.181-2.536 1.811-3.8 1.328s-1.932-2.6-4.166-2.354c-2.234.3-2.173 2.6-3.683 2.234-1.57-.362-2.717-2.294-4.105-1.932s-2.536 2.6-4.407 2.6-2.838-2.234-4.286-1.449-1.268 2.837-3.019 2.6c-1.751-.181-1.751-1.449-3.5-.966s-1.268 2.536-3.019 2.6c-1.751.121-2.838-1.147-3.8.121s.121 1.328-1.147 1.57c-1.268.181-1.63-.664-2.536 0s.966 1.328-1.087 1.751c-2.053.362-1.63-.664-2.415-.121-.785.6-1.751 1.872-2.173 1.449-.362-.362 1.268-2.355 5.735-4.528a71.631 71.631 0 0 1 24.874-7.245c11.229-1.087 12.376-.845 12.376-.845l-.181-1.811-3.441-.362-.6-2.536a4.31 4.31 0 0 1-3.562 2.053c-2.475 0-3.683-2.294-3.683-4.951a55.576 55.576 0 0 1 1.328-9.66 25.864 25.864 0 0 0 .6-4.528 8.831 8.831 0 0 0-3.936 3.669c-1.147 2.475-1.328 2.475-.966 3.26s1.026 1.026.121 1.811-1.63 1.207-1.57 1.63c.121.423 1.509-.845 2.294-.423s1.389 3.441.121 4.226c-1.208.785-2.717-1.751-2.9-.845a2.707 2.707 0 0 0 1.268 2.837c1.147.483.543.543.664 1.328.121.845 1.449.845.724 1.449s-4.105.725-4.045-1.328a44.5 44.5 0 0 1 2.6-12.075c1.388-3.32 1.509-4.045.241-4.286-1.268-.181-3.2 1.751-4.226 3.562a8.543 8.543 0 0 0-1.509 4.226c.121.6.543.664.181 1.147s-1.207 1.147-1.328 2.053c-.121.845-.3 1.449.121 1.389.362 0 .906-1.872 1.992-1.509s.966 2.173.423 3.32a1.179 1.179 0 0 1-2.173.121c-.362-.845-.6-1.389-.845-.845-.181.6-.785 2.355.121 2.656s1.992-.3 1.932.6c0 .845-.483 1.147-.121 1.872s-.241 1.751-1.449 1.449-2.234-1.63-1.63-5.615a44.792 44.792 0 0 1 3.079-10.324c.785-1.63.906-1.69.423-1.69s-3.562 2.475-4.709 4.468a14.946 14.946 0 0 0-1.69 4.347c-.121.6 1.207 0 1.328 1.872.121 1.932-.906 3.321-1.751 3.321s-1.026.664-.664 1.449 2.053-.664 2.294.121-.3 3.26-1.449 3.622-2.415.423-2.113-2.6a50.6 50.6 0 0 1 1.63-9.358c.725-1.992 1.087-2.837.725-3.019a3.589 3.589 0 0 0-2.656 2.656 63.02 63.02 0 0 0-1.389 8.211c0 1.811.664 5.192-.362 5.494-1.087.362-2.173-1.811-1.389-4.166a39.318 39.318 0 0 0 1.328-6.1c.242-1.389 1.389-3.139.483-3.139s-2.6 2.234-2.837 4.045a11.693 11.693 0 0 0 0 3.562c0 1.449-.483 2.355-.483 3.562s.724 3.079 0 2.837c-.785-.3-.845-1.147-.845-2.113s.6-4.105 0-3.8c-.6.362-.6 2.777-1.147 4.528s-.423 3.743-1.389 3.381-.181-4.709.6-7.728c.724-3.079 3.5-7.667 7.486-11.109a37.76 37.76 0 0 1 8.754-5.8c1.932-.966 3.321-1.811 3.321-1.811a3.463 3.463 0 0 1 .845-2.475 20.1 20.1 0 0 1 1.751-1.57 5.454 5.454 0 0 1 .664-2.6 14.3 14.3 0 0 1 1.449-1.872v-7.969s-2.415-.6-2.234-2.9a2.5 2.5 0 0 1 1.811-2.6 14.208 14.208 0 0 1 1.389-3.8c.845-1.087 3.441-2.113 3.683-3.562a64.98 64.98 0 0 0 .785-9.177c-.121-2.9.362-7.486 2.173-7.486s1.389 1.811 1.872 3.019a26.342 26.342 0 0 1 .845 7.305 8.42 8.42 0 0 0 .121 3.2c.3 1.992.3.362.241 2.053 0 1.63-.543 1.449.362 2.475s2.113 1.57 2.173 2.294c.121.785 0 1.811.6 2.475.664.6 2.958 2.173 2.656 3.924s-1.268 2.355-1.268 3.139-.242 6.641.241 7.788 1.751.483 2.113 1.811 0 2.234 1.388 2.536c1.328.3 1.811-.845 2.173.6s1.872 2.656 1.872 2.9-4.105-1.147-6.218-1.389c-2.173-.241-2.234.845-3.2.543a4.873 4.873 0 0 0-3.2-.3c-1.087.423-1.449 2.355-1.57 4.588-.121 2.294 0 5.554.423 5.8.362.241 2.113.121 2.113 2.475a5.914 5.914 0 0 1-2.053 4.045s.6 1.328 1.811.906c1.147-.423 1.449-3.2 1.63-4.649a10.559 10.559 0 0 0 0-2.234 15.147 15.147 0 0 1 .906 5.011c-.121 2.234 0 3.622.6 3.139.543-.483.543-6.52 0-10.565-.483-4.045-1.811-7.245-.121-7 1.63.3 4.769 7.426 5.554 9.056s1.208 2.475 1.63 2.294-1.932-6.339-2.717-8.573c-.845-2.234-1.751-3.2-.664-2.9s5.856 6.339 6.4 6.581-.121-1.872-.845-3.079c-.724-1.147-1.147-1.872 0-1.751s10.5 4.166 13.825 9c3.381 4.83 5.554 7.969 5.977 8.211.362.242 1.63.6 1.449 1.268-.181.6-1.811.845-1.268 2.053a4.928 4.928 0 0 1 .664 2.234c.121 1.087.121 2.777.664 3.139s3.32 1.087 3.743 2.837 2.354 1.872 2.536 3.321c.181 1.389.181 2.6 1.69 3.8a9.913 9.913 0 0 1 1.751 1.811h-3.743a2.051 2.051 0 0 0-.724-.724Zm-38.035-49.2c.121.543 0 .724.6.845a.878.878 0 0 0 1.026-.845c0-.483 0-4.045-.121-4.588a1 1 0 0 0-1.026-.906c-.483 0-.6.724-.6.724l.121 4.83Zm-2.415.478c.664.181 1.207.121 1.207-.483s.181-4.166.121-5.011c0-.845-.121-1.328-.906-1.449a1.281 1.281 0 0 0-1.208.483v5.56c.001.478.122.72.786.9Zm-7.25 18.777a2.274 2.274 0 0 0 1.207 0c.664-.181 1.026.121 1.509 1.57.483 1.509 0 3.2-.785 3.622-.845.423-.664 0-1.69 0-.966 0-.181 1.026.423 1.57s1.268.423 2.6-.785.906-3.2.785-4.105c-.181-.906.785-.483 1.147-1.509a45.515 45.515 0 0 0 .483-8.15c-.121-1.207 0-1.811-1.328-1.872-1.389 0-2.6.362-3.079 1.509s-1.328 8.09-1.328 8.09Zm-4.528-10.384c-.121.906-.423 1.147.906.906s2.355-1.63 3.321-1.328.181 1.328 1.57.845c1.389-.543 3.26-.906 3.8-1.268a1.242 1.242 0 0 0-1.268-1.268 17.724 17.724 0 0 0-4.709.483c-1.872.483-3.562.785-3.622 1.63Zm8.875-23a4.288 4.288 0 0 0-2.838.181c-1.147.3-2.053.6-2.053.6s-.785.241-.543.785.181.724.966.543c.785-.121.845-.664 2.294-.785s2.113.423 2.6 0c.483-.483.242-.966-.543-1.328Zm1.087 2.958c-.664-.3-2.294-.181-4.166.181a14.031 14.031 0 0 0-3.864 1.57c-.543.181-1.087 1.268-.181 1.63s1.509-.724 3.26-1.268a22.863 22.863 0 0 1 4.528-.6c1.328-.181 1.087-1.147.423-1.449Zm-6.52 10.867c0 .966.242 1.509.906 1.57a1.368 1.368 0 0 0 1.328-1.207c0-.6.121-4.347 0-5.132s-.543-1.268-1.268-1.207a1.225 1.225 0 0 0-1.026.785v5.192Zm4.045-.121c0 .966 1.69.664 1.811-.121a33.212 33.212 0 0 0-.3-5.917c-.181-.906-1.69 0-1.69 0 .002.541.12 5.07.183 6.041Zm.181 3.562a17.262 17.262 0 0 0-5.675 1.147c-1.449.6-.3 1.992.543 1.932a28.411 28.411 0 0 1 3.562-.845h3.2c.845 0 1.328 0 1.69-.785.3-.845-1.449-1.449-3.2-1.449Zm31.816 33.507c.785 0 .664-.664 0-1.328s-2.053-.121-2.113.543c-.121.6 2.113.845 2.113.845Zm-10.082.181s2.536.181 3.019.181.724 0 .845-.724c.121-.785-2.053-1.026-3.32-1.026s-.543 1.57-.543 1.57Zm-9.056-5.675c-.121-.543-2.415-1.026-4.226-.785-1.751.241 0 1.328 0 1.328s2.777.241 3.019.181c1.328 0 1.328-.181 1.268-.785Zm2.113-7.788c-.966-.362-.121 4.468-.121 4.468s.543.483 1.328-.483c.73-.908-.238-3.624-1.202-3.987Zm4.045 8.09c-.181-.543-2.415-.845-3.441-.845s-1.389 1.026-.785 1.389 3.683.423 3.924.423c.664 0 .483-.423.242-.966Zm.3 3.5c-1.509-.423-5.615-1.147-5.011-.181.6.906 3.32 1.63 4.045 1.63.007 0 2.422-1.023.973-1.449Zm2.9-13.765c-.785-.423-1.147 0-.785 1.268.362 1.207 1.509 5.132 1.509 5.494s1.268-.181 1.328-1.026c0-.906-1.268-5.252-2.053-5.675Zm3.381-2.475c-.6-.483-1.268.241-1.268.241s3.32 6.882 3.864 7.365c.543.543 1.147.785 1.328 0 .181-.724-3.381-7.245-3.924-7.728Zm9.177 15.093a10.605 10.605 0 0 0-4.226-1.751c-1.026 0-1.268.6-.6.906.664.241 4.709 1.57 4.709 1.57a.6.6 0 0 0 .121-.664Zm1.268 6.037a1.418 1.418 0 0 0-1.389.845c.362.724 1.63.906 2.838.543 1.271-.301-.479-1.267-1.445-1.388Z" fill="#000000"/><path data-name="Path 12967" d="M85.669 78.062c9.478 0 29.4 3.32 34.171 4.89 2.234.724 4.407 1.57 6.037 2.234h-5.132c-.966-.785-4.226-2.475-4.468-.966a6.255 6.255 0 0 1-.06.966h-1.207a7.064 7.064 0 0 0-.06-1.449c-.121-.6-3.019-2.113-4.166-1.509s-1.026 1.147-1.026 2.838v.181h-1.026a15.243 15.243 0 0 0-.121-2.9c-.362-.724-4.286-2.656-5.252-1.026a11.43 11.43 0 0 0-.543 3.864h-1.207v-3.623c-.121-.725-1.63-1.57-3.2-1.57-1.509 0-3.5-.3-3.683 1.087-.06.6-.06 2.354-.06 4.166h-1.328v-4.468c-.121-.543-1.449-1.57-3.622-1.389-2.173.121-3.079.362-3.2 1.992v3.864h-1.389a29.9 29.9 0 0 0-.121-4.105c-.121-.724-1.388-1.57-3.381-1.328-1.992.181-3.2.6-3.441 1.69-.06.483-.121 2.053-.181 3.8h-1.268c0-1.811-.121-3.32-.121-3.622-.121-.785-.121-1.328-1.389-1.328s-3.562.483-4.226 1.328-.483 1.268-.6 2.415v1.207h-1.328v-2.173c0-.845-.966-1.389-2.656-.906s-2.777 1.389-2.838 2.717v.423H62.49v-.483c0-.423-1.147-1.026-2.294-.483a2.778 2.778 0 0 0-1.207.966h-5.197a51.372 51.372 0 0 1 7.064-2.9c7.667-2.415 15.516-4.286 24.994-4.286Z" fill="#000000"/></g><path data-name="Rectangle 1376" fill="#000000" d="M0 84.763h180.333v1.147H0z"/><path data-name="Rectangle 1377" fill="#000000" d="M0 127.628h180.333v1.147H0z"/></g></svg>