<?xml version="1.0" encoding="utf-8"?>
<!-- Generator: Adobe Illustrator 27.0.0, SVG Export Plug-In . SVG Version: 6.00 Build 0)  -->
<svg version="1.1" id="Ñëîé_1" xmlns="http://www.w3.org/2000/svg" xmlns:xlink="http://www.w3.org/1999/xlink" x="0px" y="0px"
	 viewBox="0 0 512 512" style="enable-background:new 0 0 512 512;" xml:space="preserve">
<style type="text/css">
	.st0{clip-path:url(#SVGID_00000043427968384454321600000005042534563173645485_);fill:#E41C29;}
	.st1{fill:#110F0D;}
</style>
<g id="XMLID_90_">
	<g id="XMLID_97_">
		<g>
			<defs>
				<path id="SVGID_1_" d="M107.24,273.83c10.1,0,18.13-8.16,18.13-18.13c0-10.1-8.16-18.13-18.13-18.13
					c-10.1,0-18.13,8.16-18.13,18.13C88.98,265.81,97.14,273.83,107.24,273.83"/>
			</defs>
			<clipPath id="SVGID_00000016059428267582604020000007290744455050895261_">
				<use xlink:href="#SVGID_1_"  style="overflow:visible;"/>
			</clipPath>
			<path id="XMLID_164_" style="clip-path:url(#SVGID_00000016059428267582604020000007290744455050895261_);fill:#E41C29;" d="
				M107.66,257.5h0.28l-0.14,0.28l0,0l0.42-0.42l0,0L107.66,257.5L107.66,257.5z M107.8,256.67L107.8,256.67l0.42-0.42l0,0
				l-0.55,0.14l0,0h0.28L107.8,256.67z M106.55,259.58h-0.42l0,0l0.14,0.14l-0.14,0.14l0,0L106.55,259.58L106.55,259.58
				L106.55,259.58z M107.52,259.03h-0.55l0,0l0.28,0.14l-0.14,0.14l0,0L107.52,259.03L107.52,259.03L107.52,259.03z M107.94,258.47
				h0.28v0.28l0,0l0.42-0.55l0,0L107.94,258.47L107.94,258.47z M106.55,260.55L106.55,260.55l0.14,0.14l-0.14,0.14l0,0l0.28-0.28
				l0,0L106.55,260.55z M109.04,260.55l0.28-0.28l0,0l-0.42,0.14l0,0h0.14V260.55L109.04,260.55z M109.32,258.06l0.42-0.69l0,0
				l-0.83,0.28l0,0h0.42V258.06L109.32,258.06z M107.8,259.86h-0.55l0,0l0.28,0.14l-0.14,0.14l0,0L107.8,259.86L107.8,259.86
				L107.8,259.86z M108.77,256.26l0.42,0.14l-0.14,0.28l0,0l0.55-0.55l0,0L108.77,256.26L108.77,256.26z M108.49,259.86l0.42-0.55
				l0,0l-0.69,0.14l0,0h0.28V259.86L108.49,259.86L108.49,259.86z M109.73,254.87L109.73,254.87l0.42-0.28l0,0h-0.42l0,0l0.14,0.14
				L109.73,254.87z M108.63,255.57L108.63,255.57l0.55-0.42l0,0h-0.69l0,0l0.28,0.14L108.63,255.57z M110.84,258.75L110.84,258.75
				l0.28,0.14l-0.14,0.28l0,0l0.42-0.42l0,0H110.84z M112.36,255.15L112.36,255.15l0.42-0.28l0,0h-0.42l0,0l0.14,0.14L112.36,255.15
				z M108.21,260.69h-0.42l0,0l0.14,0.14l-0.14,0.14l0,0L108.21,260.69L108.21,260.69z M111.12,255.01L111.12,255.01l0.42-0.28l0,0
				h-0.55l0,0l0.14,0.14L111.12,255.01z M110.43,257.78h0.28l-0.14,0.28l0,0l0.42-0.55l0,0L110.43,257.78L110.43,257.78
				L110.43,257.78z M110.7,254.04h2.08c0,0,0.69,0.28,1.52,0.55c0.42,0.14,0.55,0.55,0.55,0.97c0,0,0.28,0.28,0.55,0.55
				c0.28,0.28,0.28,0.69,0.14,0.83c-0.14,0.28-0.42,0.28-0.55,0.28l0,0c0.14-0.14,0.14-0.42,0-0.55c-0.14-0.14-0.28-0.28-0.42-0.14
				l-0.14,0.14l0.28,0.55l0,0c-0.28,0.14-0.55,0-0.83-0.14c0,0,0,0-1.66,0l0,0l0.83,0.14l0,0l-3.04,3.6l0,0l1.11-0.97v0.83
				l-0.14,0.28l0.14,0.55v0.28l0.97,0.83l0,0l0,0l0,0l0,0l0,0l0,0l0,0l0,0l0,0l0,0l0,0l0,0l0,0l0,0l0,0l0,0l0,0l0,0l0,0l0,0l0,0
				v-0.14v-0.14v-0.14l0,0h-0.14h-0.14l0,0l0.42-0.14l0,0l0,0l0,0l0,0l0,0l0,0l0,0l0,0l0,0l0,0l0,0l0,0l0,0l0,0l0,0l0,0l0,0l0,0l0,0
				l0,0l0,0v-0.14v-0.14v-0.14l0,0h-0.14h-0.14c1.66-0.42,3.04-0.55,3.04-0.55c1.66,0.97,1.52,0.97,1.94,1.11
				c0.69,0.42,0.55,1.38-0.55,1.38c-0.97,0-2.63,0.14-3.6,0.42l0.97-0.83l0,0c0,0-0.97,0.69-1.94,1.25l0,0
				c-0.55,0.28-1.52,0.55-2.35,0.97l1.38-1.25l0,0c0,0-1.66,1.38-2.91,2.08c-0.69,0.28-1.38,0.55-1.66,0.83
				c-0.55,0.28-0.83,0.28-1.38,0.14c-0.83-0.28-1.25-0.42-1.94-0.69c-0.42-0.14-0.42-0.83,0-0.97c0.14,0,0.69-0.28,1.11-0.28
				c0.14,0,0.28,0.14,0.42,0.14c0.28,0.14,0.55,0.28,0.69,0.28l0.28,0.14h0.14l0,0l0,0l0,0l0,0l0,0l0,0l0.14,0.14l0.14,0.14v0.14
				v0.14l0,0l0,0l0,0v-0.14v-0.28l-0.14-0.28l-0.14-0.14l0,0l0,0l0,0l0,0l0,0h-0.14l-0.28-0.14c-0.28-0.14-0.42-0.28-0.69-0.42
				c-0.55-0.28-0.97-0.55-1.38-0.83l0,0c0,0,1.8-0.55,4.15-1.25l0.42,0.14l0,0l0,0l-0.28-0.14l-0.55-0.42l-0.28-0.14l-0.14-0.55
				l-0.28-0.14l-0.28-1.11l0,0l0.14,1.25l-0.69,0.42v-1.66l0,0l-0.28,1.8l-0.97,0.14l0.28-1.94l0,0l-0.55,1.94h-0.97l0.69-2.08l0,0
				l-0.97,2.08l0,0h-0.97l1.11-2.08l0,0l-1.52,2.21l-0.97,0.14l1.66-2.35l0,0l-2.77,3.18l-0.14-0.14l2.49-3.87l3.74-1.38
				c0,0,0.28-0.14,0.42-0.14l0.28-0.14H106l0.14-0.14l0.14-0.14l0,0l0,0l0.14-0.14v-0.14v-0.14v-0.14v-0.14v-0.14v-0.14v-0.14l0,0
				l0,0l0,0v0.14v0.14v0.14v0.14v0.14v0.14l-0.14,0.14l-0.14,0.14l0,0l0,0l-0.14,0.14h-0.14h-0.14l-0.28,0.14
				c-0.14,0-0.28,0.14-0.42,0.14l-0.28,0.14l-0.28-0.42l0.42-0.42l0,0l-1.25,0.83l-0.28-0.55l1.8-1.25l0,0l-2.63,1.52l-0.28-0.69
				l2.49-1.66l0,0l-3.18,1.8l-0.14-0.55l2.77-1.8l0,0l-3.32,1.66l-0.14-0.69l0,0l2.77-1.52l0,0l-3.46,1.38v-0.69l2.77-1.11l0,0
				l-3.32,0.97v-0.69l2.63-0.55l0,0l-3.32,0.42l0.14-0.69l2.35-0.28l0,0h-3.32v-0.55h2.63l0,0l-4.84-0.42l0,0l0.83-0.28l0,0
				l-1.94-0.83l0,0h0.83l0,0l-1.8-1.11l0,0l1.25,0.14l0,0l-1.38-1.25l0,0l0.69,0.14l0,0l-0.69-0.83l-0.42-1.11l0,0l0.69,0.83
				l1.38,0.83l0,0l-0.97-1.38l-0.28-1.52l0,0l0.69,1.11l1.38,1.11l0,0l-0.83-1.52l-0.28-1.94l0,0l0.83,1.66l1.8,1.52l0,0l-1.25-1.94
				l-0.28-2.35l0,0l0.83,2.08l2.49,2.35l3.18,1.66l3.46,4.84l1.38,1.11l0,0l-0.55-0.83l0,0l0,0l0,0l1.38-0.42l0,0l-1.25-0.14l0,0
				l1.8-0.28l0,0l-2.21-0.14l0,0l2.91-0.42l1.11,0.28l0,0l-1.11-0.55h-1.8l0,0l1.94-0.42l1.11,0.42l0,0l-1.11-0.69h-1.25l0,0
				l1.38-0.28l1.25,0.55l0,0l-0.97-0.97h-1.11l0,0l1.38-0.28l1.25,0.97l0,0l-0.97-1.38l-0.97-0.14l0,0l1.25-0.14l1.11,1.38l0,0
				l-0.83-1.8l-1.11-0.42l0,0l1.38,0.14l1.11,1.8l0,0l-0.69-2.08l-1.38-0.55l0,0l1.66,0.28l0.97,2.21l0,0l-0.55-2.49l-1.52-0.83l0,0
				l1.8,0.69l0.83,2.49l0,0l-0.55-2.63l-1.66-1.11l0,0l1.94,0.97l0.69,2.63l0,0l-0.42-2.77l-1.66-1.52l0,0l1.94,1.38l0.55,2.63l0,0
				l-0.28-2.77l-1.66-1.8l0,0l1.94,1.66l0.42,2.49l0,0l-0.14-2.63l-1.52-2.08l0,0l1.94,1.94l0.28,2.21l0,0l-0.14-2.35l-1.38-2.21
				l0,0l1.66,2.08l0.28,1.52l0,0l-0.14-1.66l-0.97-2.35l0,0l1.25,2.21l0.14,0.83l0,0v-0.97l-0.55-2.21l0,0l0.69,1.8l0,0l0.42-1.8
				l0,0l-0.14,1.8l0,0l1.25-1.8l0,0l-0.83,1.66l0,0l1.94-1.38l0,0l-2.91,3.87c0,0-0.97,2.49-1.25,3.32c0,0.14-0.14,0.28-0.28,0.28
				l-0.97,0.42l-0.55,0.55L110.7,254.04L110.7,254.04L110.7,254.04z M107.52,238.27c-9.82,0-17.85,8.03-17.85,17.85
				c0,9.82,8.03,17.85,17.85,17.85c9.82,0,17.85-8.03,17.85-17.85C125.37,246.29,117.48,238.27,107.52,238.27 M110.15,256.53
				l0.28,0.14l-0.14,0.28l0,0l0.55-0.55l0,0L110.15,256.53L110.15,256.53L110.15,256.53z M111.67,257.92h0.14v0.14l0,0l0.28-0.28
				l0,0L111.67,257.92L111.67,257.92L111.67,257.92z M108.9,263.59L108.9,263.59L108.9,263.59l0.14,0.14l0,0l0,0l0,0l0,0l0,0l0,0
				l0,0l0,0l0,0l0,0l0,0l0,0l0,0l0,0l0,0v-0.14v-0.14l0,0l0,0l0,0h-0.14V263.59L108.9,263.59L108.9,263.59L108.9,263.59
				L108.9,263.59L108.9,263.59L108.9,263.59L108.9,263.59L108.9,263.59L108.9,263.59L108.9,263.59L108.9,263.59 M110.56,264.28
				h-0.14c-0.14,0-0.28,0-0.28,0.14l-0.28,0.14h-0.14h-0.14c-0.28,0.14-0.55,0.14-0.83,0.28c-0.14,0-0.28,0.14-0.55,0.14l-0.28,0.14
				l-0.28,0.14h-0.14l-0.28,0.14l0,0c-0.14,0-0.28,0.14-0.28,0.14h-0.14l-0.28,0.14l0,0l0,0l0,0h0.14h0.14
				c0.14,0,0.28-0.14,0.28-0.14h0.14l0.28-0.14h0.14l0.28-0.14l0.28-0.14c0.14,0,0.28-0.14,0.55-0.14c0.28-0.14,0.55-0.14,0.83-0.28
				l0.42-0.14l0.28-0.14h0.14C110.15,264.42,110.29,264.42,110.56,264.28L110.56,264.28h0.28l0,0H110.56z M107.1,264.84h0.14
				c0.14,0,0.42-0.14,0.55-0.14h0.14l0,0l0.28-0.14l0.28-0.14h0.14h0.14l0,0l0,0l0,0h-0.14l0,0l-0.28,0.14h-0.28h-0.14h-0.14
				c-0.14,0-0.42,0.14-0.55,0.14c-0.14,0-0.28,0.14-0.42,0.14h-0.14l0,0c-0.14,0-0.28,0.14-0.42,0.14h-0.14l0,0H106h-0.14l0,0l0,0
				H106h0.14h0.14h0.14l0.28-0.14h0.14C106.83,264.98,106.97,264.84,107.1,264.84 M110.01,259.72L110.01,259.72l0.28,0.14
				l-0.14,0.28l0,0l0.42-0.42l0,0H110.01z M109.6,259.16l0.42-0.69l0,0l-0.69,0.28l0,0h0.42L109.6,259.16L109.6,259.16L109.6,259.16
				z M111.95,256.81h-0.55l0,0l0.28,0.14l-0.14,0.14l0,0L111.95,256.81L111.95,256.81z M109.6,262.48l-1.11-1.25l0,0l0.28,1.52
				l0.55,0.69l0,0l0,0l0,0l0,0l0,0l0,0l0,0l0,0l0,0l0,0l0,0l0,0l0,0l0,0l0,0l0,0l0,0l0,0l0,0l0,0v-0.14v-0.14v-0.14l0,0h-0.14h-0.14
				l0,0l0,0l0,0l0.28-0.14l0,0l0,0l0,0l0,0l0,0l0,0l0,0l0,0l0,0l0,0l0,0l0,0l0,0l0,0l0,0l0,0l0,0l0,0l0,0l0,0v-0.14v-0.14v-0.14
				h-0.14h-0.14h-0.14l0,0c0.28-0.14,0.55-0.14,0.83-0.28l-0.97-0.55L109.6,262.48z M111.39,255.7l0.28,0.14l-0.14,0.28l0,0
				l0.55-0.42l0,0H111.39L111.39,255.7z M102.12,249.89l-1.25,0.55v-0.42l0,0v0.55l0,0L102.12,249.89L102.12,249.89z M103.23,251.28
				l-1.66,0.97v-0.42l0,0v0.55l0,0L103.23,251.28L103.23,251.28L103.23,251.28z M102.68,250.58l-1.52,0.83V251l0,0v0.55l0,0
				L102.68,250.58L102.68,250.58z M105.17,253.49l-1.25,0.55v-0.42l0,0v0.55l0,0L105.17,253.49L105.17,253.49z M104.48,252.66
				l-1.38,0.69v-0.42l0,0v0.55l0,0L104.48,252.66L104.48,252.66z M103.78,251.97l-1.66,0.83v-0.42l0,0v0.55l0,0L103.78,251.97
				L103.78,251.97L103.78,251.97z M99.91,251.14L99.91,251.14l-3.6-1.11l-1.66-1.38l0,0l1.52,1.52L99.91,251.14z M100.05,250.31
				L100.05,250.31L97,249.2l-1.52-1.38l0,0l1.38,1.66L100.05,250.31z M110.01,255.43l0.28,0.14l-0.14,0.28l0,0l0.55-0.42l0,0H110.01
				L110.01,255.43L110.01,255.43z M96.31,251.83l1.38,0.42l2.63,0.28v-0.14L96.31,251.83L96.31,251.83z M96.73,247.26L96.73,247.26
				l1.11,1.52l2.77,0.97l0,0l-2.49-1.11L96.73,247.26z M105.72,254.18l-0.83,0.42v-0.28l0,0v0.55l0,0L105.72,254.18L105.72,254.18z
				 M100.05,251.69l-5.12-1.11l0,0l1.38,0.42L100.05,251.69L100.05,251.69L100.05,251.69z M101.57,249.34L101.57,249.34l-2.35-1.25
				l-1.38-1.94l0,0l1.25,2.08L101.57,249.34L101.57,249.34z M111.53,264.01L111.53,264.01L111.53,264.01h0.28h0.28h0.28l0,0h0.28
				h0.28h0.14l0,0l0,0l0,0l0,0l0,0l0,0l0,0h-0.14h-0.28h-0.28c-0.14,0-0.42,0.14-0.55,0.14L111.53,264.01L111.53,264.01
				L111.53,264.01L111.53,264.01L111.53,264.01L111.53,264.01L111.53,264.01z M113.61,263.04L113.61,263.04h0.14h0.14
				c0.14,0,0.42-0.14,0.69-0.14l0,0h0.28h0.14h0.14h0.14l0,0h0.14l0,0l0,0l0,0h-0.14l0,0h-0.14l0,0h-0.28h-0.42l0,0
				c-0.28,0-0.42,0.14-0.69,0.14H113.61L113.61,263.04L113.61,263.04L113.61,263.04L113.61,263.04L113.61,263.04z M111.81,262.9
				L111.81,262.9L111.81,262.9l0.14,0.14l0,0l0,0l0,0l0,0l0,0l0,0l0,0l0,0l0,0l0,0l0,0l0,0l0,0l0,0l0,0l0,0v-0.14v-0.14v-0.14l0,0
				l0,0h-0.14h-0.14L111.81,262.9L111.81,262.9L111.81,262.9L111.81,262.9L111.81,262.9L111.81,262.9L111.81,262.9L111.81,262.9
				L111.81,262.9L111.81,262.9 M113.75,256.67L113.75,256.67L113.75,256.67L113.75,256.67L113.75,256.67L113.75,256.67l0.14,0.14
				l0,0L113.75,256.67L113.75,256.67L113.75,256.67L113.75,256.67L113.75,256.67L113.75,256.67l0.14-0.14l0,0l0,0l0,0l0,0l0,0l0,0
				l0,0l0,0l0,0l0,0l0,0l0,0l0,0l0,0l0,0l0,0l0,0l0,0l0,0l0,0l0,0l0,0l0,0l0,0l0,0h-0.14h-0.14l0,0l0,0l0,0l0,0l0,0l0,0
				L113.75,256.67L113.75,256.67L113.75,256.67 M113.75,255.43L113.75,255.43L113.75,255.43L113.75,255.43L113.75,255.43l0.14,0.14
				l0,0l0,0l0,0h0.14l0,0l0,0l0,0l0,0l0,0l0,0l0.14-0.14v-0.14l0,0l0,0l0,0l0,0l0,0l0,0l0,0l0,0l0,0l0,0l0,0l0,0l0,0l0,0l0,0l0,0
				l0,0l0,0l0,0l0,0l0,0l0,0l0,0l0,0l0,0l0,0l0,0l0,0l0,0l0,0l0,0l0,0l0,0l0,0l0,0l0,0l0,0l0,0l0,0l0,0l0,0l0,0l0,0l0,0l0,0l0,0l0,0
				l0,0l0,0l0,0l0,0l0,0l0,0l0,0L113.75,255.43L113.75,255.43L113.75,255.43L113.75,255.43L113.75,255.43z M115.27,256.4
				L115.27,256.4L115.27,256.4L115.27,256.4l0.14,0.14v0.14l0,0l0,0v0.14l0,0l0,0l0,0l0,0l0,0v-0.14l0,0l0,0v-0.14v-0.14H115.27
				L115.27,256.4L115.27,256.4L115.27,256.4L115.27,256.4c-0.14-0.28-0.28-0.42-0.42-0.55l-0.14,0.14
				C114.85,256.12,114.99,256.26,115.27,256.4L115.27,256.4 M106.41,256.4L106.41,256.4L106.41,256.4l-0.14,0.14l0,0l0.69-0.42l0,0
				L106.41,256.4z M106.14,254.87l-0.55,0.28v-0.28l0,0v0.42l0,0L106.14,254.87L106.14,254.87z M106.55,257.09L106.55,257.09
				L106.55,257.09l-0.14,0.14l0,0l0.42-0.28l0,0L106.55,257.09z M106.83,255.43l-0.69,0.28v-0.28l0,0v0.42l0,0L106.83,255.43
				L106.83,255.43L106.83,255.43z M115.13,263.18h-0.28h-0.28h-0.14h-0.14h-0.14h-0.14h-0.28h-0.14h-0.14l0,0h0.14h0.14h0.28h0.28
				l0,0h0.14h0.28h0.14h0.14l0,0h0.28h0.28h0.14h0.14h0.14h0.14l0,0l0,0h-0.14l0,0h-0.28h-0.14h-0.28h-0.28H115.13 M104.2,260.27
				L104.2,260.27l0.14,0.14l-0.14,0.14l0,0l0.28-0.28l0,0H104.2L104.2,260.27z M105.03,266.91l-0.55-0.28l0.55-0.28l0,0l-0.83,0.28
				l-0.14,0.14l0.14,0.14l0,0H105.03c0.14,0.14,0.28,0.28,0.42,0.28l0.42,0.14l0,0l-0.42-0.14
				C105.31,267.05,105.17,266.91,105.03,266.91 M105.31,260.27L105.31,260.27l0.14,0.14l-0.14,0.14l0,0l0.28-0.28l0,0H105.31
				L105.31,260.27z"/>
		</g>
	</g>
	<path id="XMLID_168_" class="st1" d="M12.18,238.82H10.1c-4.57,0-6.23,2.08-8.03,6.5l-1.66,4.15H0v-11.07h30.17v11.07h-0.55
		l-1.66-4.15c-1.8-4.43-3.32-6.5-8.03-6.5h-2.08v28.09c0,2.21,0.69,4.29,4.01,4.84l1.25,0.14v0.55H7.06v-0.55l1.25-0.14
		c3.32-0.55,4.01-2.63,4.01-4.84v-28.09H12.18z M40.41,238.41v14.67c0.97-1.52,3.74-4.57,7.47-4.57c3.74,0,7.75,2.08,7.75,8.72
		v11.76c0,1.25,0.55,2.21,2.08,2.77l0.97,0.28v0.55H47.33v-0.55l0.97-0.28c1.66-0.42,2.08-1.52,2.08-2.77v-11.35
		c0-4.43-2.63-6.09-5.12-6.09c-1.8,0-3.46,0.97-4.84,1.94v15.36c0,1.25,0.55,2.21,2.08,2.77l0.97,0.28v0.55H32.1v-0.55l0.97-0.28
		c1.66-0.42,2.08-1.52,2.08-2.77v-27.12c0-1.25-0.55-2.21-2.08-2.77l-0.97-0.28v-0.55h8.3V238.41z M71.54,248.37
		c6.09,0,9.55,4.15,9.55,8.86v0.28H65.73c0,0.55,0,1.11,0,1.38c0,6.23,3.32,10.79,8.58,10.79c3.46,0,5.81-2.21,6.64-4.15l0.42,0.14
		c-0.42,2.08-3.6,7.47-9.96,7.47c-6.92,0-11.07-5.26-11.07-12.45C60.47,254.18,64.62,248.37,71.54,248.37 M65.73,256.95h9.82v-1.52
		c0-3.32-0.97-6.5-4.15-6.5C67.94,248.92,66.42,252.11,65.73,256.95"/>
	<path id="XMLID_180_" class="st1" d="M138.79,268.16c0,2.21,0.69,4.29,4.15,4.98l1.25,0.28v0.28h-16.74v-0.28l1.25-0.28
		c3.46-0.69,4.15-2.63,4.15-4.98V243.8c0-2.21-0.69-4.29-4.15-4.98l-1.25-0.28v-0.28h16.74v0.28l-1.25,0.28
		c-3.46,0.69-4.15,2.77-4.15,4.98V268.16z M179.48,245.74v28.78h-0.42l-25.74-30.3l0.14,18.68c0,8.44,2.77,9.55,5.81,10.38
		l0.83,0.14v0.28h-13.7v-0.28l0.83-0.14c3.04-0.69,5.81-1.94,5.81-10.38v-18.96l-0.55-0.69c-2.63-2.91-4.43-4.15-7.2-4.7v-0.28
		h12.32c1.25,2.21,3.04,4.43,7.06,9.27l14.39,17.02l-0.14-18.13c0-6.09-2.21-7.33-5.4-7.75l-1.11-0.14v-0.28h31.69
		c13.15,0,19.79,8.3,19.79,17.57c0,9.27-6.78,17.85-19.79,17.85H186.4v-0.28l1.25-0.14c3.6-0.55,4.29-2.63,4.29-4.98v-22.56
		c0-5.4-2.77-7.06-6.23-7.06C182.24,238.55,179.48,240.34,179.48,245.74 M203.14,273.42c9.41,0,14.39-6.64,14.39-17.44
		c0-10.79-5.4-17.44-14.81-17.44h-4.84v29.61c0,2.91,0.69,5.26,4.15,5.26L203.14,273.42L203.14,273.42z M242.72,273.42
		c5.67,0,8.58-1.66,11.07-5.81l2.35-4.01h0.28v9.96h-31.14v-0.28l1.25-0.14c3.46-0.55,4.15-2.77,4.15-4.98v-24.49
		c0-2.35-0.69-4.15-4.15-4.84l-1.25-0.28v-0.28h29.89v9.96h-0.28l-2.35-4.29c-2.35-4.29-5.67-5.4-11.76-5.4h-4.15v16.74h2.49
		c5.4-0.14,7.2-0.42,8.99-5.81l0.55-1.8h0.28v15.5h-0.28l-0.55-1.66c-1.8-5.54-3.46-5.67-8.99-5.81h-2.49v12.73
		c0,3.04,1.11,5.12,4.7,5.12L242.72,273.42L242.72,273.42z M275.79,238.41c7.89,0,13.42,4.29,13.42,10.52
		c0,6.23-5.54,10.66-13.42,10.66h-2.21v-0.28h0.14c5.81,0,9.13-4.01,9.13-10.24c0-6.37-3.32-10.24-9.13-10.24h-1.8v29.06
		c0,3.74,0.97,4.7,5.12,5.54l0.97,0.14v0.28h-17.44v-0.28l1.25-0.28c3.46-0.69,4.15-2.63,4.15-4.98V243.8
		c0-2.21-0.69-4.29-4.15-4.98l-1.25-0.28v-0.28h15.22V238.41z M308.17,273.42c5.67,0,8.58-1.66,11.07-5.81l2.35-4.01h0.28v9.96
		h-31.27v-0.28l1.25-0.14c3.46-0.55,4.15-2.77,4.15-4.98v-24.49c0-2.35-0.69-4.15-4.15-4.84l-1.25-0.28v-0.28h29.89v9.96h-0.28
		l-2.35-4.29c-2.35-4.29-5.67-5.4-11.76-5.4h-4.15v16.74h2.49c5.4-0.14,7.2-0.42,8.99-5.81l0.55-1.8h0.28v15.5h-0.28l-0.55-1.66
		c-1.8-5.54-3.46-5.67-8.99-5.81h-2.49v12.73c0,3.04,1.11,5.12,4.7,5.12L308.17,273.42L308.17,273.42z M358.54,245.74v28.78h-0.42
		l-25.74-30.3l0.14,18.68c0,8.44,2.77,9.55,5.81,10.38l0.83,0.14v0.28h-13.7v-0.28l0.83-0.14c3.04-0.69,5.81-1.94,5.81-10.38v-18.96
		l-0.55-0.69c-2.63-2.91-4.43-4.15-7.2-4.7v-0.28h12.32c1.25,2.21,3.04,4.43,7.06,9.27l14.39,17.02l-0.14-18.13
		c0-6.09-2.21-7.33-5.4-7.75l-1.11-0.14v-0.28h31.83c13.15,0,19.79,8.3,19.79,17.57c0,9.27-6.78,17.85-19.79,17.85H365.6v-0.28
		l1.25-0.14c3.6-0.55,4.29-2.63,4.29-4.98v-22.56c0-5.4-2.77-7.06-6.23-7.06C361.31,238.55,358.54,240.34,358.54,245.74
		 M382.2,273.42c9.41,0,14.39-6.64,14.39-17.44c0-10.79-5.4-17.44-14.81-17.44h-4.84v29.61c0,2.91,0.69,5.26,4.15,5.26L382.2,273.42
		L382.2,273.42z M421.78,273.42c5.67,0,8.58-1.66,11.07-5.81l2.35-4.01h0.28v9.96h-31.14v-0.28l1.25-0.14
		c3.46-0.55,4.15-2.77,4.15-4.98v-24.49c0-2.35-0.69-4.15-4.15-4.84l-1.25-0.28v-0.28h29.89v9.96h-0.28l-2.35-4.29
		c-2.35-4.29-5.67-5.4-11.76-5.4h-4.15v16.74h2.49c5.4-0.14,7.2-0.42,8.99-5.81l0.55-1.8H428v15.5h-0.42l-0.55-1.66
		c-1.8-5.54-3.46-5.67-8.99-5.81h-2.49v12.73c0,3.04,1.11,5.12,4.7,5.12L421.78,273.42L421.78,273.42z M471.73,247.54
		c0-6.5-2.21-8.3-5.4-8.72l-1.11-0.14v-0.28h13.56v0.28l-1.11,0.14c-3.18,0.42-5.4,2.21-5.4,8.72v26.85h-0.42l-25.74-30.3
		l0.14,18.68c0,8.44,2.77,9.55,5.81,10.38l0.83,0.14v0.28h-13.7v-0.28l0.83-0.14c3.04-0.69,5.81-1.94,5.81-10.38V243.8l-0.55-0.69
		c-2.63-2.91-4.43-4.15-7.2-4.7v-0.28h12.32c1.25,2.21,3.04,4.43,7.06,9.27l14.39,17.02L471.73,247.54z M493.46,238.55h-2.21
		c-4.7,0-6.64,2.49-8.58,6.92l-1.66,4.29h-0.28v-11.49H512v11.49h-0.28l-1.66-4.29c-1.8-4.57-3.74-6.92-8.58-6.92h-2.21v29.61
		c0,2.21,0.69,4.43,4.15,4.98l1.25,0.14v0.28h-16.74v-0.28l1.25-0.14c3.46-0.55,4.15-2.77,4.15-4.98v-29.61H493.46z"/>
</g>
</svg>
